<svg xmlns="http://www.w3.org/2000/svg" viewBox="0 0 673.24 202.24"><defs><style>.cls-1{fill:#f8f8f8;}.cls-2{fill:#0b9ddd;}</style></defs><g id="Layer_2" data-name="Layer 2"><g id="Capa_1" data-name="Capa 1"><path class="cls-1" d="M.76,57.77s48.05,8.91,112.73-23.19S359.28-36.77,501.58,68.47c0,0,105.34,17.83,138.6,35.67,0,0,27.72,8.92,31.42,46.38s0,47.66,0,47.66l-66.53,4.06s2.77-31.21-17.56-66.88a61.42,61.42,0,0,1,27.72,51.72h24l7.39-25h11.09l-9.24-30.32s-24-3.57-53.6-26.76l31.42,3.57S596.75,94.33,485.87,78.28l-11.09-8.92,1.85,8.92H458.15s-11.09,0-14.79-7.14,9.24-14.27,9.24-14.27S354.66-3.77,221.6,23c0,0-42.51,5.36-85,28.54l24,14.27s170,0,314.17,25l-401,3.57s-20.33-23.19-35.12-25c-7.35-.89-29.57-1.78-29.57-1.78Z"/><path class="cls-2" d="M247.47,25.09s98-15.58,183,31.14C430.43,56.23,367.59,29,247.47,25.09Z"/><path class="cls-2" d="M12.68,72.13s18.45.84,24.5,2C47.79,76,53,80.14,64.07,93.77H32.41Z"/><path class="cls-2" d="M31.29,157.52h19.6l-4.21,9.42H26.26q-11.19,0-18.91-8.8a30.22,30.22,0,0,1,0-39.51q7.77-8.79,18.91-8.79H50.89l-3.45,9.42H26.26a14.11,14.11,0,0,0-10.84,5.2,21.75,21.75,0,0,0,0,27.82q4.64,5.24,10.84,5.24Z"/><path class="cls-2" d="M90.9,157.91l4.1,9H53.43l25.08-57.1h7l25.09,57.1H99.45L82,126.06,68.37,157.91Z"/><path class="cls-2" d="M125.41,166.94H115v-57.1h33.43A16.1,16.1,0,0,1,161,115.62a19.18,19.18,0,0,1,0,25.13,16.3,16.3,0,0,1-10.56,5.67l15.63,20.52h-12.6l-15-19.62-.59-.78H125.45l4.14-9.42h18.87a5.81,5.81,0,0,0,4.45-2.23,10.62,10.62,0,0,0,0-13.4,5.81,5.81,0,0,0-4.45-2.23H125.41Z"/><path class="cls-1" d="M184.68,123.91v43H171V110.47h25.87q11,0,18.59,8.68a30,30,0,0,1,0,39.11q-7.66,8.67-18.62,8.68H185.33l6-13.44h5.48a10.59,10.59,0,0,0,8.19-4,15.69,15.69,0,0,0,3.92-10.82A15.87,15.87,0,0,0,205,127.86a10.73,10.73,0,0,0-8.22-4Z"/><path class="cls-1" d="M233.33,159.32q-7.26-8.19-7.26-18.16h0q0-15.24,7.29-23.46,7.62-8.64,21.67-8.64t21.67,8.68q7.24,8.17,7.25,21,0,12.41-7.22,20.63Q269,168,255,168T233.33,159.32Zm33-8.78q3.88-4.38,3.89-11.85,0-7.8-3.89-12.24-3.53-3.95-11.3-4t-11.34,4q-3.89,4.41-3.89,12.21,0,7.44,3.89,11.88,3.56,4,11.34,4T266.3,150.54Z"/><path class="cls-1" d="M319,153.5H340.2l-6,13.44H314.42q-11,0-18.62-8.68a30,30,0,0,1,0-39.15q7.64-8.64,18.59-8.64h25.5L335,123.91H314.42a10.75,10.75,0,0,0-8.25,4,16.91,16.91,0,0,0,0,21.58,10.72,10.72,0,0,0,8.25,4Z"/><path class="cls-1" d="M374.4,123.88v43.06H360.67V123.88h-19l4.92-13.41h46.73l-4.92,13.41Z"/><path class="cls-1" d="M396.87,159.32q-7.26-8.19-7.26-18.16h0q0-15.24,7.29-23.46,7.62-8.64,21.67-8.64t21.67,8.68q7.25,8.17,7.25,21,0,12.41-7.22,20.63-7.67,8.67-21.7,8.67T396.87,159.32Zm33-8.78q3.89-4.38,3.89-11.85,0-7.8-3.89-12.24-3.52-3.95-11.3-4t-11.34,4q-3.88,4.41-3.89,12.21,0,7.44,3.89,11.88,3.56,4,11.34,4T429.84,150.54Z"/><path class="cls-1" d="M476.06,148.53H467l5.91-13.44h13.7a3.35,3.35,0,0,0,2.5-1.27,7,7,0,0,0,0-8.64,3.35,3.35,0,0,0-2.5-1.27H466.44v43H452.71V110.47h33.9a16.42,16.42,0,0,1,12.83,6,19.91,19.91,0,0,1,0,26.14q-4.45,5.07-6.69,5.36l14.51,19H490.13Z"/><path class="cls-1" d="M514.37,126.73h-2.8v-9.45h8.34v9.45h0l-5.26,11.18h-3.95Z"/><path class="cls-1" d="M572.08,110.47l-4.92,13.44h-24a2.3,2.3,0,0,0-1.87.78,3.31,3.31,0,0,0-.66,2.22q0,1.83,3.18,3.14a66,66,0,0,0,8.51,2.64,50.7,50.7,0,0,1,10.33,3.78q9.65,4.89,9.49,15.41a14.22,14.22,0,0,1-5.45,11.49A16.79,16.79,0,0,1,556,166.94H524.54l4.92-13.44H556a3,3,0,0,0,2-.53,1.43,1.43,0,0,0,.5-1.27,3.44,3.44,0,0,0-2.18-3.31,47.93,47.93,0,0,0-9.68-3.11,47,47,0,0,1-11.4-4.12q-8.22-4.41-8.25-14.25a15.95,15.95,0,0,1,16.23-16.44Z"/><path class="cls-1" d="M2.53,199.84l6.32-21.91h5.58l6.32,21.91H18.22l-1.66-5.64H6.72l-1.66,5.64ZM10.78,180,7.29,192H16L12.5,180Z"/><path class="cls-1" d="M42.62,193.25Q42.62,198,48,198a6.69,6.69,0,0,0,4.21-1.12,4.37,4.37,0,0,0,1.41-3.63V177.93h2.53v15.26c0,2.45-.69,4.22-2,5.32s-3.37,1.64-6,1.64-4.66-.55-6-1.64-2-2.87-2-5.32V177.93h2.56Z"/><path class="cls-1" d="M75.32,180.12v-2.19H91.94v2.19h-7v19.72H82.4V180.12Z"/><path class="cls-1" d="M127.87,189c0,3.91-.65,6.73-2,8.49s-3.68,2.62-7.13,2.62-5.82-.89-7.13-2.69-2-4.61-2-8.46.67-6.72,2-8.58,3.69-2.81,7.08-2.81,5.75.93,7.09,2.79S127.87,185.14,127.87,189ZM112.32,189c0,3.21.44,5.51,1.33,6.92s2.6,2.1,5.13,2.1,4.25-.68,5.12-2.06,1.31-3.67,1.31-6.9-.45-5.58-1.36-7.06-2.61-2.21-5.1-2.21-4.19.73-5.09,2.2S112.32,185.77,112.32,189Z"/><path class="cls-1" d="M148.65,199.84V177.93h4.62l6.51,18.52,6.52-18.52h4.62v21.91h-2.56V180.53h-.47l-6.68,18.52h-2.86l-6.68-18.52h-.46v19.31Z"/><path class="cls-1" d="M209.9,189c0,3.91-.65,6.73-2,8.49s-3.68,2.62-7.13,2.62-5.82-.89-7.13-2.69-2-4.61-2-8.46.67-6.72,2-8.58,3.69-2.81,7.08-2.81,5.75.93,7.09,2.79S209.9,185.14,209.9,189ZM194.35,189c0,3.21.44,5.51,1.33,6.92s2.6,2.1,5.13,2.1,4.25-.68,5.12-2.06,1.32-3.67,1.32-6.9-.46-5.58-1.37-7.06-2.61-2.21-5.1-2.21-4.19.73-5.08,2.2S194.35,185.77,194.35,189Z"/><path class="cls-1" d="M227.62,180.12v-2.19h16.62v2.19h-7v19.72H234.7V180.12Z"/><path class="cls-1" d="M263.58,199.84V177.93h2.56v21.91Z"/><path class="cls-1" d="M300.91,177.93h2.66l-6,21.91h-5.71l-6-21.91h2.66l5.28,19.75h1.86Z"/><path class="cls-1" d="M323.28,199.84V177.93h14v2.15H325.84v7.57h9.44v2.12h-9.44v7.91h11.43v2.16Z"/><path class="cls-1" d="M395,199.49a32.78,32.78,0,0,1-6.15.66,11.27,11.27,0,0,1-4.4-.71,5.39,5.39,0,0,1-2.6-2.22,9.86,9.86,0,0,1-1.26-3.45,28.32,28.32,0,0,1-.35-4.85,29.12,29.12,0,0,1,.35-4.9,10.07,10.07,0,0,1,1.26-3.49,5.34,5.34,0,0,1,2.58-2.22,11.4,11.4,0,0,1,4.32-.7,33.83,33.83,0,0,1,6.25.7l-.1,2.06a36.16,36.16,0,0,0-6-.57q-3.66,0-4.84,2.07T382.94,189a28.88,28.88,0,0,0,.22,4,8.52,8.52,0,0,0,.84,2.74,3.68,3.68,0,0,0,1.85,1.74,9.55,9.55,0,0,0,3.56.52,32.08,32.08,0,0,0,5.53-.57Z"/><path class="cls-1" d="M415.31,199.84V177.93h14v2.15H417.87v7.57h9.44v2.12h-9.44v7.91h11.44v2.16Z"/><path class="cls-1" d="M449.78,199.84V177.93h4.79l8.81,19.75h.7V177.93h2.52v21.91h-4.69L453,180.08h-.63v19.76Z"/><path class="cls-1" d="M486,180.12v-2.19h16.61v2.19h-7v19.72H493V180.12Z"/><path class="cls-1" d="M521.91,199.84V177.93h14v2.15H524.47v7.57h9.44v2.12h-9.44v7.91H535.9v2.16Z"/><path class="cls-1" d="M558.94,191.45v8.39h-2.56V177.93h8.5a8.15,8.15,0,0,1,5.51,1.62q1.85,1.6,1.84,5,0,5.07-4.22,6.36l4.42,8.9H569.6l-4.15-8.39Zm6-2.15q4.68,0,4.68-4.61t-4.72-4.61h-5.94v9.22Z"/></g></g></svg>