<svg xmlns="http://www.w3.org/2000/svg" viewBox="0 0 316.32 95.02"><defs><style>.cls-1{fill:#424242;}.cls-2{fill:#0b9ddd;}</style></defs><g id="Capa_2" data-name="Capa 2"><g id="Capa_1-2" data-name="Capa 1"><path class="cls-1" d="M.36,27.14s22.57,4.19,53-10.89S168.8-17.28,235.66,32.17c0,0,49.49,8.38,65.12,16.76,0,0,13,4.19,14.77,21.79s0,22.39,0,22.39L284.29,95s1.3-14.66-8.25-31.42a28.86,28.86,0,0,1,13,24.3h11.29l3.47-11.73H309l-4.34-14.25s-11.29-1.68-25.18-12.57L294.27,51s-13.89-6.71-66-14.25l-5.21-4.19.87,4.19h-8.68s-5.21,0-6.95-3.35,4.34-6.71,4.34-6.71-46-28.49-108.53-15.92A126.15,126.15,0,0,0,64.18,24.21l11.28,6.7s79.89,0,147.61,11.73L34.65,44.32S25.1,33.43,18.16,32.59c-3.46-.42-13.9-.84-13.9-.84Z"/><path class="cls-2" d="M116.27,11.79s46-7.32,86,14.63C202.23,26.42,172.71,13.62,116.27,11.79Z"/><path class="cls-2" d="M6,33.89s8.67.39,11.51.92c5,.91,7.42,2.84,12.63,9.25H15.23Z"/><path class="cls-2" d="M14.7,74h9.21l-2,4.42H12.34A11.37,11.37,0,0,1,3.45,74.3a14.21,14.21,0,0,1,0-18.56,11.44,11.44,0,0,1,8.89-4.13H23.91L22.29,56H12.34a6.61,6.61,0,0,0-5.09,2.45,10.19,10.19,0,0,0,0,13.07A6.58,6.58,0,0,0,12.34,74Z"/><path class="cls-2" d="M42.71,74.19l1.93,4.24H25.1L36.89,51.61h3.29L52,78.43H46.73l-8.19-19.2-6.42,15Z"/><path class="cls-2" d="M58.92,78.43H54V51.61H69.75a7.53,7.53,0,0,1,5.89,2.72,9,9,0,0,1,0,11.8,7.66,7.66,0,0,1-5,2.66L78,78.43H72.1l-7-9.21-.28-.37H58.94l2-4.43h8.86a2.71,2.71,0,0,0,2.09-1,5,5,0,0,0,0-6.3,2.72,2.72,0,0,0-2.09-1H58.92Z"/><path class="cls-1" d="M86.77,58.22V78.43H80.32V51.91H92.47A11.19,11.19,0,0,1,101.21,56a14.1,14.1,0,0,1,0,18.38,11.23,11.23,0,0,1-8.75,4.07H87.08l2.82-6.31h2.57a5,5,0,0,0,3.85-1.87,7.38,7.38,0,0,0,1.84-5.09,7.46,7.46,0,0,0-1.82-5.09,5.06,5.06,0,0,0-3.87-1.85Z"/><path class="cls-1" d="M109.63,74.86a12.55,12.55,0,0,1-3.41-8.54h0q0-7.15,3.43-11,3.59-4,10.18-4.06T130,55.32a14.28,14.28,0,0,1,3.41,9.84,14.14,14.14,0,0,1-3.4,9.7q-3.59,4.06-10.19,4.07T109.63,74.86Zm15.49-4.13A8.08,8.08,0,0,0,127,65.16a8.43,8.43,0,0,0-1.83-5.75c-1.1-1.24-2.87-1.85-5.31-1.85s-4.22.62-5.33,1.87a8.35,8.35,0,0,0-1.83,5.73,8.2,8.2,0,0,0,1.83,5.59c1.11,1.24,2.89,1.87,5.33,1.87S124,72,125.12,70.73Z"/><path class="cls-1" d="M149.86,72.12h10L157,78.43h-9.29A11.2,11.2,0,0,1,139,74.36,14.09,14.09,0,0,1,139,56a11.22,11.22,0,0,1,8.74-4.06h12l-2.31,6.31h-9.67a5,5,0,0,0-3.88,1.87,7.94,7.94,0,0,0,0,10.14,5,5,0,0,0,3.88,1.89Z"/><path class="cls-1" d="M175.91,58.2V78.43h-6.45V58.2h-8.91l2.31-6.29h22l-2.31,6.29Z"/><path class="cls-1" d="M186.46,74.86a12.59,12.59,0,0,1-3.4-8.54h0q0-7.15,3.42-11,3.58-4,10.19-4.06t10.18,4.08a14.28,14.28,0,0,1,3.41,9.84,14.19,14.19,0,0,1-3.4,9.7q-3.6,4.06-10.19,4.07T186.46,74.86ZM202,70.73a8.08,8.08,0,0,0,1.83-5.57A8.43,8.43,0,0,0,202,59.41c-1.11-1.24-2.88-1.85-5.31-1.85s-4.22.62-5.33,1.87a8.35,8.35,0,0,0-1.83,5.73,8.2,8.2,0,0,0,1.83,5.59c1.11,1.24,2.89,1.87,5.33,1.87S200.84,72,202,70.73Z"/><path class="cls-1" d="M223.67,69.78h-4.25l2.78-6.31h6.43a1.59,1.59,0,0,0,1.17-.59,3.29,3.29,0,0,0,0-4.06,1.57,1.57,0,0,0-1.17-.6h-9.48V78.43H212.7V51.91h15.93a7.71,7.71,0,0,1,6,2.8,9.33,9.33,0,0,1,0,12.27c-1.4,1.59-2.44,2.43-3.15,2.52l6.82,8.93h-8Z"/><path class="cls-1" d="M241.67,59.54h-1.31V55.1h3.92v4.44h0l-2.47,5.26h-1.86Z"/><path class="cls-1" d="M268.79,51.91l-2.31,6.31H255.2a1.09,1.09,0,0,0-.88.36,1.57,1.57,0,0,0-.31,1.05c0,.57.5,1.06,1.49,1.47a29.46,29.46,0,0,0,4,1.24,24.12,24.12,0,0,1,4.84,1.78,7.47,7.47,0,0,1,4.47,7.24,6.71,6.71,0,0,1-2.56,5.4,7.9,7.9,0,0,1-5.05,1.67H246.45l2.31-6.31h12.45a1.43,1.43,0,0,0,.94-.25.69.69,0,0,0,.23-.59,1.62,1.62,0,0,0-1-1.56,22.82,22.82,0,0,0-4.55-1.46,22.09,22.09,0,0,1-5.36-1.94,7,7,0,0,1-3.87-6.69,7.46,7.46,0,0,1,7.62-7.72Z"/><path class="cls-1" d="M1.19,93.62l3-10.29H6.78l3,10.29H8.56L7.78,91H3.16l-.78,2.64Zm3.87-9.31L3.42,90H7.51L5.88,84.31Z"/><path class="cls-1" d="M20,90.53c0,1.49.85,2.23,2.53,2.23a3.08,3.08,0,0,0,2-.53,2,2,0,0,0,.66-1.7v-7.2h1.19V90.5a3,3,0,0,1-1,2.5,4.49,4.49,0,0,1-2.84.77A4.4,4.4,0,0,1,19.77,93a3.06,3.06,0,0,1-.95-2.5V83.33H20Z"/><path class="cls-1" d="M35.39,84.36v-1H43.2v1H39.9v9.26H38.72V84.36Z"/><path class="cls-1" d="M60.08,88.55a6.8,6.8,0,0,1-.92,4,4,4,0,0,1-3.35,1.23c-1.62,0-2.74-.42-3.35-1.26a6.85,6.85,0,0,1-.92-4,7,7,0,0,1,.94-4,3.79,3.79,0,0,1,3.32-1.32,3.87,3.87,0,0,1,3.34,1.31A7,7,0,0,1,60.08,88.55Zm-7.31,0a6.29,6.29,0,0,0,.63,3.25,2.63,2.63,0,0,0,2.41,1,2.62,2.62,0,0,0,2.4-1,6.19,6.19,0,0,0,.62-3.24,6.48,6.48,0,0,0-.64-3.31,2.59,2.59,0,0,0-2.4-1,2.59,2.59,0,0,0-2.39,1A6.56,6.56,0,0,0,52.77,88.52Z"/><path class="cls-1" d="M69.84,93.62V83.33H72L75.07,92l3.06-8.7H80.3V93.62H79.1V84.55h-.22l-3.14,8.7H74.4l-3.14-8.7H71v9.07Z"/><path class="cls-1" d="M98.62,88.55a6.73,6.73,0,0,1-.92,4c-.61.82-1.73,1.23-3.35,1.23A3.9,3.9,0,0,1,91,92.51a6.85,6.85,0,0,1-.92-4,7,7,0,0,1,.94-4,3.79,3.79,0,0,1,3.32-1.32,3.86,3.86,0,0,1,3.34,1.31A7,7,0,0,1,98.62,88.55Zm-7.31,0a6.29,6.29,0,0,0,.63,3.25,2.63,2.63,0,0,0,2.41,1,2.65,2.65,0,0,0,2.41-1,6.31,6.31,0,0,0,.61-3.24,6.48,6.48,0,0,0-.64-3.31,3.26,3.26,0,0,0-4.78,0A6.44,6.44,0,0,0,91.31,88.52Z"/><path class="cls-1" d="M107,84.36v-1h7.8v1h-3.29v9.26h-1.19V84.36Z"/><path class="cls-1" d="M123.84,93.62V83.33h1.21V93.62Z"/><path class="cls-1" d="M141.38,83.33h1.25L139.8,93.62h-2.68l-2.83-10.29h1.25L138,92.61h.88Z"/><path class="cls-1" d="M151.89,93.62V83.33h6.57v1h-5.37V87.9h4.44v1h-4.44v3.72h5.37v1Z"/><path class="cls-1" d="M185.61,93.46a15.25,15.25,0,0,1-2.89.31,5.4,5.4,0,0,1-2.07-.33,2.6,2.6,0,0,1-1.22-1,4.6,4.6,0,0,1-.59-1.62,13.23,13.23,0,0,1-.17-2.29,13.44,13.44,0,0,1,.17-2.3,4.71,4.71,0,0,1,.59-1.64,2.56,2.56,0,0,1,1.21-1,5.28,5.28,0,0,1,2-.33,15.69,15.69,0,0,1,2.94.33l-.05,1a16.86,16.86,0,0,0-2.81-.27,2.38,2.38,0,0,0-2.27,1,7.19,7.19,0,0,0-.56,3.33,15.56,15.56,0,0,0,.1,1.89,4,4,0,0,0,.4,1.28,1.73,1.73,0,0,0,.87.82,4.47,4.47,0,0,0,1.67.25,15,15,0,0,0,2.6-.27Z"/><path class="cls-1" d="M195.13,93.62V83.33h6.58v1h-5.38V87.9h4.44v1h-4.44v3.72h5.38v1Z"/><path class="cls-1" d="M211.33,93.62V83.33h2.25l4.13,9.28H218V83.33h1.19V93.62H217l-4.2-9.28h-.3v9.28Z"/><path class="cls-1" d="M228.32,84.36v-1h7.81v1h-3.3v9.26h-1.19V84.36Z"/><path class="cls-1" d="M245.22,93.62V83.33h6.57v1h-5.37V87.9h4.43v1h-4.43v3.72h5.37v1Z"/><path class="cls-1" d="M262.61,89.68v3.94h-1.2V83.33h4a3.8,3.8,0,0,1,2.58.76,3,3,0,0,1,.87,2.36,2.76,2.76,0,0,1-2,3L269,93.62h-1.33l-1.95-3.94Zm2.81-1a2.17,2.17,0,1,0,0-4.33h-2.8v4.33Z"/></g></g></svg>