<svg xmlns="http://www.w3.org/2000/svg" viewBox="0 0 676 208.86"><defs><style>.cls-1,.cls-4,.cls-5{fill:#f8f8f8;}.cls-2,.cls-3{fill:#0b9ddd;}.cls-3{font-size:72.1px;font-family:SweraDemo, Swera Demo;}.cls-4{font-size:65.07px;font-family:SweraDemo-Bold, Swera Demo;font-weight:700;}.cls-5{font-size:31.66px;font-family:TitilliumWeb-Regular, Titillium Web;}</style></defs><g id="Capa_2" data-name="Capa 2"><g id="Capa_1-2" data-name="Capa 1"><path class="cls-1" d="M3.52,57.77s48.05,8.91,112.73-23.19S362-36.77,504.34,68.47c0,0,105.34,17.83,138.6,35.67,0,0,27.72,8.92,31.42,46.38s0,47.66,0,47.66l-66.53,4.06s2.77-31.21-17.56-66.88A61.42,61.42,0,0,1,618,187.08h24l7.39-25H660.5l-9.24-30.32s-24-3.57-53.6-26.76l31.42,3.57S599.51,94.33,488.63,78.28l-11.09-8.92,1.85,8.92H460.91s-11.09,0-14.79-7.14,9.24-14.27,9.24-14.27S357.42-3.77,224.36,23c0,0-42.51,5.36-85,28.54l24,14.27s170,0,314.17,25l-401,3.57s-20.33-23.19-35.12-25c-7.35-.89-29.57-1.78-29.57-1.78Z"/><path class="cls-2" d="M250.23,25.09s98-15.58,183,31.14C433.19,56.23,370.35,29,250.23,25.09Z"/><path class="cls-2" d="M15.44,72.13s18.45.84,24.5,2c10.61,2,15.8,6.06,26.89,19.69H35.17Z"/><text class="cls-3" transform="translate(0 166.94) scale(0.98 1.11)">CAR<tspan class="cls-4" x="174.71" y="0">DOCTOR’S</tspan></text><text class="cls-5" transform="translate(4.49 199.84) scale(1.05 1)">AUTOMOTIVE CENTER</text></g></g></svg>