<svg xmlns="http://www.w3.org/2000/svg" viewBox="0 0 164.15 164.15"><defs><style>.cls-1{fill:#fff;}.cls-2{fill:#0b9ddd;}.cls-3{fill:#424242;}</style></defs><g id="Capa_2" data-name="Capa 2"><g id="Capa_1-2" data-name="Capa 1"><circle class="cls-1" cx="82.07" cy="82.07" r="82.07"/><path class="cls-2" d="M61.92,98.38H78.63l-3.59,8H57.63a20.63,20.63,0,0,1-16.12-7.49,24.62,24.62,0,0,1-6.27-16.86,24.51,24.51,0,0,1,6.27-16.83,20.7,20.7,0,0,1,16.12-7.5h21l-2.94,8H57.63a12,12,0,0,0-9.24,4.44A17.28,17.28,0,0,0,44.1,82.06a17.23,17.23,0,0,0,4.29,11.86,12,12,0,0,0,9.24,4.46Z"/><path class="cls-3" d="M96.52,69.73v36.68H84.81V58.27h22.06a20.35,20.35,0,0,1,15.85,7.4,24.28,24.28,0,0,1,6.19,16.66A24.47,24.47,0,0,1,122.75,99a20.43,20.43,0,0,1-15.88,7.39H97.08L102.2,95h4.67a9,9,0,0,0,7-3.4,14.44,14.44,0,0,0,0-18.46,9.12,9.12,0,0,0-7-3.37Z"/></g></g></svg>