<svg xmlns="http://www.w3.org/2000/svg" viewBox="0 0 682.22 428.58"><defs><style>.cls-1{fill:#ebebeb;}.cls-2{fill:#f5f5f5;}.cls-3{fill:#e0e0e0;}.cls-4{fill:#fff;}.cls-5{fill:#263238;}.cls-6{fill:#455a64;}.cls-7{fill:#fafafa;}.cls-8{fill:#0b9ddd;}.cls-9{opacity:0.2;}.cls-10{fill:#b78876;}.cls-11{fill:#aa6550;}.cls-12{fill:#ffbe9d;}.cls-13{fill:#eb996e;}.cls-14{fill:#e8505b;}.cls-15{fill:#e07646;}.cls-16{fill:#3a3a3a;}</style></defs><g id="Capa_2" data-name="Capa 2"><g id="Background_Complete" data-name="Background Complete"><path class="cls-1" d="M527.08,383.51a8,8,0,0,0,4.74-7.35,7.47,7.47,0,1,0-14.9-.07,7.93,7.93,0,0,0,4.74,7.42c-11.46,1.73-10.94,14.18-10.94,14.18l27.11.13S538.45,385.23,527.08,383.51Z"/><path class="cls-1" d="M46.66,101.63a6,6,0,0,0,3.55-5.51A5.6,5.6,0,1,0,39,96.06a6,6,0,0,0,3.56,5.57c-8.6,1.29-8.21,10.64-8.21,10.64l20.33.1S55.19,102.92,46.66,101.63Z"/><path class="cls-2" d="M530,69.34a24.84,24.84,0,1,1-25.39-24.27A24.85,24.85,0,0,1,530,69.34Z"/><path class="cls-3" d="M499.93,63.27a2.76,2.76,0,0,0-3.84-.35,4.71,4.71,0,0,0-1.9,3.47A4.78,4.78,0,0,0,492,63a2.78,2.78,0,0,0-3.84.52,3.7,3.7,0,0,0-.51,2.64,5,5,0,0,0,1,2.52c2.05,2.39,3.15,2.79,5.75,4.46,2.51-1.78,3.31-2.23,5.24-4.7a5.14,5.14,0,0,0,.88-2.57A3.79,3.79,0,0,0,499.93,63.27Z"/><path class="cls-3" d="M521.85,62.78a2.75,2.75,0,0,0-3.83-.35,4.68,4.68,0,0,0-1.9,3.47A4.8,4.8,0,0,0,514,62.52a2.78,2.78,0,0,0-3.84.52,3.7,3.7,0,0,0-.51,2.64,5,5,0,0,0,1,2.52c2,2.39,3.14,2.79,5.75,4.46,2.5-1.78,3.31-2.23,5.23-4.7a5,5,0,0,0,.88-2.57A3.69,3.69,0,0,0,521.85,62.78Z"/><path class="cls-4" d="M513.52,75.55a8.2,8.2,0,0,1-16.34.09Z"/><circle class="cls-2" cx="619.76" cy="343.47" r="25.43" transform="matrix(0.16, -0.99, 0.99, 0.16, 182.15, 900.77)"/><path class="cls-3" d="M611.32,336.18c1-.06,1.82,1,1.9,2.41s-.63,2.57-1.59,2.63-1.82-1-1.9-2.41S610.35,336.24,611.32,336.18Z"/><path class="cls-3" d="M613.69,329.78c-.06.37-2.14.26-4.46,1.09s-3.91,2.15-4.18,1.9,1.07-2.19,3.76-3.11S613.79,329.46,613.69,329.78Z"/><path class="cls-3" d="M632.13,340.15c-.28.22-1.64-1.25-3.84-1.47s-3.84.9-4,.62.15-.62.88-1.11a5.12,5.12,0,0,1,6.38.69C632.1,339.51,632.26,340.05,632.13,340.15Z"/><path class="cls-3" d="M634.31,335.9c-.2.31-2.26-.77-5-.85s-4.89.78-5.06.44,2-1.86,5.11-1.72S634.54,335.65,634.31,335.9Z"/><path class="cls-3" d="M632.51,343c.11,0,.14,2.1-1.59,4.89a12.89,12.89,0,0,1-21.61.67c-1.91-2.66-2-4.78-1.9-4.77s.65,1.88,2.61,4.22a12.47,12.47,0,0,0,20.15-.63C632,344.89,632.28,342.9,632.51,343Z"/><circle class="cls-2" cx="25.24" cy="194.82" r="25.24" transform="translate(-158.22 124.58) rotate(-61.67)"/><path class="cls-3" d="M16.53,188.46c1-.08,1.83,1,1.94,2.36s-.57,2.56-1.52,2.64-1.83-1-1.94-2.36S15.58,188.54,16.53,188.46Z"/><path class="cls-3" d="M18.75,182.07c0,.21-2.13,0-4.49.91s-3.86,2.38-4,2.22,1.18-2,3.76-2.9S18.82,181.89,18.75,182.07Z"/><path class="cls-3" d="M32.58,188.13c-1,0-1.78,1.05-1.84,2.43s.68,2.54,1.64,2.58,1.78-1,1.84-2.44S33.54,188.17,32.58,188.13Z"/><path class="cls-3" d="M30.1,181.83c-.07-.17,2.15-.82,4.76,0s4,2.65,3.87,2.75-1.68-1.31-4.1-2.06S30.13,182.05,30.1,181.83Z"/><path class="cls-3" d="M37.7,194.56a3.81,3.81,0,0,1-.18,1.35,11.51,11.51,0,0,1-1.46,3.43,13.43,13.43,0,0,1-3.85,4,12.85,12.85,0,0,1-6.42,2.23A12.81,12.81,0,0,1,19.18,204a13.5,13.5,0,0,1-4.25-3.56,11.71,11.71,0,0,1-1.81-3.26,3.83,3.83,0,0,1-.31-1.32,19,19,0,0,0,2.52,4.25,13.51,13.51,0,0,0,4.16,3.3,12.54,12.54,0,0,0,6.26,1.41,12.58,12.58,0,0,0,6.09-2,13.7,13.7,0,0,0,3.79-3.71A19.67,19.67,0,0,0,37.7,194.56Z"/><path class="cls-3" d="M243,228.59a3.55,3.55,0,0,0-4.95-.24,6.07,6.07,0,0,0-2.25,4.57,6.17,6.17,0,0,0-2.95-4.23,3.59,3.59,0,0,0-4.91.89,4.72,4.72,0,0,0-.51,3.41,6.55,6.55,0,0,0,1.42,3.19c2.77,2.95,4.2,3.41,7.64,5.41,3.12-2.43,4.13-3.05,6.47-6.33a6.69,6.69,0,0,0,1-3.35A4.79,4.79,0,0,0,243,228.59Z"/><path class="cls-3" d="M607.74,35.2A3.53,3.53,0,0,0,602.8,35a6.05,6.05,0,0,0-2.25,4.57,6.19,6.19,0,0,0-3-4.23,3.59,3.59,0,0,0-4.91.89,4.76,4.76,0,0,0-.5,3.41,6.5,6.5,0,0,0,1.42,3.19c2.77,3,4.2,3.41,7.63,5.41,3.12-2.43,4.13-3.05,6.47-6.34a6.43,6.43,0,0,0,1-3.34A4.74,4.74,0,0,0,607.74,35.2Z"/><path class="cls-1" d="M509.14,314.37a3.54,3.54,0,0,0-4.95-.24,6,6,0,0,0-2.25,4.56,6.16,6.16,0,0,0-2.95-4.22,3.58,3.58,0,0,0-4.91.88,4.74,4.74,0,0,0-.51,3.42A6.59,6.59,0,0,0,495,322c2.77,3,4.2,3.41,7.64,5.4,3.12-2.42,4.13-3.05,6.47-6.33a6.63,6.63,0,0,0,1-3.35A4.78,4.78,0,0,0,509.14,314.37Z"/></g><g id="Character_3" data-name="Character 3"><path class="cls-3" d="M579.58,136.36a75.31,75.31,0,0,0-61.34,31.55l-26.81,3.8,15,21.42a75.46,75.46,0,1,0,73.11-56.77Z"/><path class="cls-5" d="M565.73,105c11.06-14.57,22.72-12.51,30.81-9a22.23,22.23,0,0,1,13,21.19c-.14,2.32-.64,4.77.31,6.9,1.52,3.43,5.94,4.39,8.51,7.13,3.5,3.73,2.73,9.65,1.54,14.64s-2.43,10.67.5,14.88c2.69,3.85,7.81,4.88,12,6.93a22,22,0,0,1,11.68,13.75,18.81,18.81,0,0,1-4,17.37c-4.1,4.47-10.26,6.45-16.27,7.34a60,60,0,0,1-68.61-62.35"/><path class="cls-6" d="M633.78,200.29s.38-.36,1-1.12a10.2,10.2,0,0,0,2-3.77,14.07,14.07,0,0,0,.06-6.69,16.38,16.38,0,0,0-4.11-7.81,19.45,19.45,0,0,0-4-3.3,32.6,32.6,0,0,0-5.1-2.47,37.4,37.4,0,0,1-5.57-2.64,17.31,17.31,0,0,1-4.82-4.47,23,23,0,0,1-4.27-13.25,35.12,35.12,0,0,1,.63-7.41c.45-2.47,1.07-4.93,1.55-7.43a27.6,27.6,0,0,0,.61-5.28,14.26,14.26,0,0,0-1.16-5c-.64-1.6-1.4-3.16-2-4.79a22.35,22.35,0,0,1-1-5c-.2-1.67-.2-3.31-.39-4.88a28.33,28.33,0,0,0-.89-4.58,24.25,24.25,0,0,0-3.71-7.91l0,0h0a16.44,16.44,0,0,0-11.42-7.37,15.71,15.71,0,0,0-10.39,2.17,16.86,16.86,0,0,0-5.08,4.72c-.92,1.33-1.26,2.13-1.31,2.11a10.49,10.49,0,0,1,1.16-2.21,16.46,16.46,0,0,1,15.69-7.29,16.91,16.91,0,0,1,11.88,7.54l0,0a24.51,24.51,0,0,1,3.87,8.12,28.51,28.51,0,0,1,.93,4.68c.2,1.63.2,3.26.41,4.88a22.38,22.38,0,0,0,1,4.85c.59,1.57,1.35,3.13,2,4.77a14.77,14.77,0,0,1,1.22,5.26,28.34,28.34,0,0,1-.62,5.44c-.48,2.53-1.11,5-1.56,7.42a35.94,35.94,0,0,0-.63,7.26,22.43,22.43,0,0,0,4.1,12.87,16.92,16.92,0,0,0,4.62,4.33,36.93,36.93,0,0,0,5.47,2.62,33.93,33.93,0,0,1,5.16,2.55,19.94,19.94,0,0,1,4.08,3.43,16.64,16.64,0,0,1,4.13,8.08,14.21,14.21,0,0,1-.19,6.86,9.91,9.91,0,0,1-2.13,3.78A5.88,5.88,0,0,1,633.78,200.29Z"/><path class="cls-7" d="M593.34,183.2a12.29,12.29,0,0,1,2.53-2.56,12.8,12.8,0,0,1,2.88-2.16,12.67,12.67,0,0,1-2.53,2.55A13.05,13.05,0,0,1,593.34,183.2Z"/><path class="cls-8" d="M589.71,174.55l-33.33,4.06s-26.83,4.88-32.22,25c-3.72,13.88-11.43,39.72-15.84,54.38a13.74,13.74,0,0,0,6.82,16.16h0a13.75,13.75,0,0,0,19-6.72l14.58-33.55s5.14,11.72,4.84,17.26S541.64,277,541.64,277h0c24.62,14.12,49.64,12.34,69.11,3.51h0l-.93-53s9.16,47.31,27.72,43.71c15.55-3,5.31-33.35,0-44.94-6.78-14.79-15.62-35.89-21.19-41C601.43,171.67,589.71,174.55,589.71,174.55Z"/><g class="cls-9"><path d="M558.93,181.29a40.36,40.36,0,0,1-7.59,8.19,21.58,21.58,0,0,1-6.21,4.23,7.76,7.76,0,0,1-7.23-.53c-2-1.47-2.85-4.67-1.26-6.62,1.06-1.29,2.79-1.76,4.41-2.16l16.19-4"/></g><path class="cls-5" d="M516.42,243.08a9.57,9.57,0,0,1,4.59-2.39,9.45,9.45,0,0,1,5.18-.11,32.5,32.5,0,0,0-5.05.61A34.15,34.15,0,0,0,516.42,243.08Z"/><path class="cls-5" d="M520.82,238.49a5.21,5.21,0,0,1,3.55-.7,5.15,5.15,0,0,1,3.36,1.36,24.46,24.46,0,0,0-3.41-.84A23.62,23.62,0,0,0,520.82,238.49Z"/><g class="cls-9"><path d="M527.45,241a9.36,9.36,0,0,0-9.24.64c-.55.39-1.26.85-1.84.5s-.53-1.17-.22-1.74c.74-1.36,2.43-1.87,4-2a16,16,0,0,1,8.17,1.31"/></g><g class="cls-9"><path d="M581.63,218.55c-1.75,3.54-6.8,5.75-9.17,9.61-2,3.25-2.74,7.09-3.94,10.72a43.46,43.46,0,0,1-19.58,23.86,60,60,0,0,0,4.43-10.85,13.59,13.59,0,0,0-1-6.72c1.15-3.52,6.16-8.37,8.45-11.27a66.67,66.67,0,0,1,8.91-9.84,22.27,22.27,0,0,1,11.88-5.51"/></g><path class="cls-7" d="M595.82,255.64a32.89,32.89,0,0,1,2.72-5.23,32.18,32.18,0,0,1,3.17-5,35.4,35.4,0,0,1-2.72,5.24A33.58,33.58,0,0,1,595.82,255.64Z"/><path class="cls-5" d="M622.85,241.52a16.18,16.18,0,0,1-.06,2.86c-.09,1.75-.29,4.18-.18,6.84.19,5.37,2.27,9.34,2.07,9.4,0,0-.17-.22-.4-.66a19.44,19.44,0,0,1-.84-1.92,22.57,22.57,0,0,1-1.35-6.79,47.12,47.12,0,0,1,.33-6.91A15.63,15.63,0,0,1,622.85,241.52Z"/><path class="cls-7" d="M577.64,264.05a25.76,25.76,0,0,1,6.22,8.5c-.13.08-1.38-1.93-3.09-4.26S577.53,264.15,577.64,264.05Z"/><path class="cls-7" d="M594.62,267.92a15.2,15.2,0,0,1,3.7,1.55,15.41,15.41,0,0,1,3.47,2,16.23,16.23,0,0,1-3.7-1.55A15.86,15.86,0,0,1,594.62,267.92Z"/><path class="cls-7" d="M583.45,251.87a10.32,10.32,0,0,1-3-2.64,10.21,10.21,0,0,1-2.2-3.32,29.34,29.34,0,0,1,2.59,3A29.23,29.23,0,0,1,583.45,251.87Z"/><path class="cls-7" d="M562.75,265.57c-.09-.12,1.41-1.32,3.06-3s2.85-3.18,3-3.1a16,16,0,0,1-6,6.11Z"/><path class="cls-7" d="M551.83,271.17a14,14,0,0,1,3,2.36,13.74,13.74,0,0,1,2.63,2.75,14.1,14.1,0,0,1-3-2.36A13.63,13.63,0,0,1,551.83,271.17Z"/><path class="cls-7" d="M572.53,232.81a41.41,41.41,0,0,1,7.76-4.77,19.63,19.63,0,0,1-3.74,2.61A19.17,19.17,0,0,1,572.53,232.81Z"/><path class="cls-7" d="M590.27,226.59a18.94,18.94,0,0,1,2.14,3.86,18.49,18.49,0,0,1,1.68,4.08,19.24,19.24,0,0,1-2.15-3.86A18.73,18.73,0,0,1,590.27,226.59Z"/><path class="cls-7" d="M602.42,224a16,16,0,0,1,1.9-3.7,16.42,16.42,0,0,1,2.35-3.42,16.82,16.82,0,0,1-1.91,3.69A17,17,0,0,1,602.42,224Z"/><path class="cls-7" d="M588.24,211.67c.07-.14,1.75.6,3.93,1.11s4,.61,4,.76a8.93,8.93,0,0,1-4.13-.26A9.19,9.19,0,0,1,588.24,211.67Z"/><path class="cls-7" d="M596.6,197.78a14,14,0,0,1-.52-3.76,14.14,14.14,0,0,1,0-3.8,14,14,0,0,1,.52,3.76A14.14,14.14,0,0,1,596.6,197.78Z"/><path class="cls-7" d="M615.24,225.61a38.14,38.14,0,0,1,3.19-8.35,38.14,38.14,0,0,1-3.19,8.35Z"/><path class="cls-7" d="M617.91,235.73a9.57,9.57,0,0,1,1.94,3.59,9.76,9.76,0,0,1,.78,4c-.16,0-.52-1.75-1.27-3.83S617.78,235.81,617.91,235.73Z"/><path class="cls-7" d="M556.33,198.9a14.4,14.4,0,0,1,3.45,1.81A14.7,14.7,0,0,1,563,203a29.48,29.48,0,0,1-6.63-4.08Z"/><path class="cls-7" d="M546.66,215.28c-.1-.11,1.29-1.45,2.65-3.37s2.18-3.65,2.32-3.59a13.06,13.06,0,0,1-5,7Z"/><path class="cls-7" d="M532.27,216a14.78,14.78,0,0,1,3.55,2.79,14.2,14.2,0,0,1,2.93,3.45,33.12,33.12,0,0,1-3.29-3.07A29.52,29.52,0,0,1,532.27,216Z"/><path class="cls-7" d="M535.72,202a25.72,25.72,0,0,1,3.51-3.75,25.21,25.21,0,0,1,3.87-3.38,25.72,25.72,0,0,1-3.51,3.75A25.21,25.21,0,0,1,535.72,202Z"/><path class="cls-7" d="M526.81,228.59a18.9,18.9,0,0,1-1.55-4.09,19.21,19.21,0,0,1-1.06-4.25,35.85,35.85,0,0,1,2.61,8.34Z"/><path class="cls-7" d="M533.7,237.16a43.15,43.15,0,0,1,.87-9.35,21.84,21.84,0,0,1-.18,4.7A20.42,20.42,0,0,1,533.7,237.16Z"/><path class="cls-10" d="M583.52,197.77a9.57,9.57,0,0,0-13.34,2.29l-8.69,12.36L514.32,250a13.53,13.53,0,1,0,18.56,19.54l38.5-43.48,5-3.84L582.2,218l1.33-12.72s3.51,1.55,6.25,2.81c4.34,2,5.78-1.62,5.78-1.62Z"/><path class="cls-11" d="M583.59,206c-.07,0-.35-.3-.81-.81a5.43,5.43,0,0,0-2.07-1.51,2.77,2.77,0,0,0-2.39.33c-.52.38-.64.82-.72.79s-.08-.53.49-1.07a2.82,2.82,0,0,1,2.78-.54,4.69,4.69,0,0,1,2.2,1.77C583.48,205.5,583.64,205.91,583.59,206Z"/><path class="cls-11" d="M577.4,209.34s.12-.38.59-.75a3.56,3.56,0,0,1,2.2-.75,3.48,3.48,0,0,1,2.18.77c.47.38.64.72.59.75s-.32-.18-.79-.45a4.08,4.08,0,0,0-2-.55,4.16,4.16,0,0,0-2,.53C577.72,209.16,577.46,209.4,577.4,209.34Z"/><path class="cls-10" d="M617.68,195.24l3.31,3.59s1.1,50.7,3,57.59,13.23,18.47,19.29,9.1-9.09-69.17-9.09-69.17-4.13-13.78-4.41-17.09Z"/><path class="cls-6" d="M625.27,165.87l-1.3,35a7.28,7.28,0,0,1-3.63,6L609.79,213a4.37,4.37,0,0,1-6.56-3.78V176.82a5,5,0,0,1,2.61-4.42l15.79-8.76A2.45,2.45,0,0,1,625.27,165.87Z"/><path class="cls-7" d="M613.14,175.11a2.34,2.34,0,1,0,3.13-1.07A2.34,2.34,0,0,0,613.14,175.11Z"/><path class="cls-10" d="M629.81,179.26s-7.81-10.82-9.55-10.73-10.12,5.11-9.76,6.2,2.1,1.73,3.65,1,4.29-3.38,4.93-2.83,2.46,2.46,2.46,2.46-7.71,3.94-8.3,5.47-2,4.29-.18,5.29c1.19.66,3.1-.09,3.83-3.19,0,0-1.46,4.47.79,5.57,2.43,1.18,3.18-1.3,5.14-3.74,1.65-2.05,2.39.56,2.39.56Z"/><path class="cls-11" d="M623.9,179.35a8.81,8.81,0,0,1-1.43.14,7.21,7.21,0,0,0-5.45,3.56,12.24,12.24,0,0,1-.7,1.25,2.68,2.68,0,0,1,.37-1.43,6.57,6.57,0,0,1,2.35-2.68,6.66,6.66,0,0,1,3.4-1.07A2.74,2.74,0,0,1,623.9,179.35Z"/><path class="cls-10" d="M558.1,108.19v4.51l-.29,67.56c0,7.84,6.68,14.12,15.08,14.09h0c8.48,0,15.48-6.47,15.65-14.39.17-8.31.51-17.06.51-17.06s10.74-1.59,13.21-15.53c1.23-6.93,1.08-18.34.66-27.66a14.76,14.76,0,0,0-16-14Z"/><path class="cls-5" d="M599.64,128.21a1.79,1.79,0,0,1-1.76,1.78,1.71,1.71,0,0,1-1.81-1.65,1.79,1.79,0,0,1,1.75-1.78A1.71,1.71,0,0,1,599.64,128.21Z"/><path class="cls-5" d="M600.35,125.59c-.22.23-1.56-.8-3.49-.83s-3.36.91-3.57.67.13-.52.76-1a4.93,4.93,0,0,1,2.86-.82,4.6,4.6,0,0,1,2.77.95C600.27,125.06,600.46,125.49,600.35,125.59Z"/><path class="cls-5" d="M581.37,127.89a1.78,1.78,0,0,1-1.76,1.77,1.72,1.72,0,0,1-1.82-1.65,1.8,1.8,0,0,1,1.76-1.77A1.71,1.71,0,0,1,581.37,127.89Z"/><path class="cls-5" d="M581.38,125.62c-.22.23-1.56-.8-3.49-.83s-3.36.91-3.57.67.13-.53.76-1a4.88,4.88,0,0,1,2.86-.83,4.79,4.79,0,0,1,2.78,1C581.3,125.09,581.5,125.51,581.38,125.62Z"/><path class="cls-5" d="M588.13,140a13.5,13.5,0,0,1,3.14-.5c.5,0,1-.14,1.05-.47a2.45,2.45,0,0,0-.3-1.47l-1.39-3.77c-1.93-5.38-3.31-9.8-3.1-9.87s2,4.22,3.89,9.59c.46,1.33.91,2.59,1.33,3.8a2.93,2.93,0,0,1,.22,1.94,1.25,1.25,0,0,1-.82.71,3.4,3.4,0,0,1-.84.1A12.34,12.34,0,0,1,588.13,140Z"/><path class="cls-11" d="M589.06,162.9a35.64,35.64,0,0,1-18.63-5.33s4.37,9.68,18.38,8.62Z"/><path class="cls-11" d="M587.23,144.68a3.46,3.46,0,0,0-3.09-1.35,3.2,3.2,0,0,0-2.21,1.14,2,2,0,0,0-.2,2.3,2.33,2.33,0,0,0,2.52.68,7.15,7.15,0,0,0,2.49-1.43,2,2,0,0,0,.56-.56.63.63,0,0,0,0-.72"/><path class="cls-5" d="M582.43,141.28c.31,0,.28,2.08,2.05,3.6s4,1.32,4,1.62c0,.13-.51.4-1.45.4a5.18,5.18,0,0,1-3.35-1.23,4.53,4.53,0,0,1-1.58-3C582,141.78,582.29,141.26,582.43,141.28Z"/><path class="cls-5" d="M541.26,187a22,22,0,0,0,23.38-18.74,14.18,14.18,0,0,1,.64-2.8,20.59,20.59,0,0,0,.53-12.87c-.52-2-1.26-4.1-.37-5.92.64-1.32,2-2.11,3.1-3.07a13,13,0,0,0,4.13-8.75,22.55,22.55,0,0,0-1.61-9.69c-.63-1.71-1.4-3.58-.76-5.28a8.29,8.29,0,0,1,2.48-2.9,22.61,22.61,0,0,0,5-6.41c1.29-2.45,2.11-5.64-1.23-7.59a6.48,6.48,0,0,0-2.28-.77c-5.91-.92-13,0-16.91,4.61-3.22,3.79-3.68,9.14-4,14.1-1,15.65-26.88,44.72-16.87,66.14Z"/><path class="cls-5" d="M582,118.06c-.2.53-2.12.24-4.39.48s-4.11.81-4.4.34c-.13-.23.19-.72.94-1.21a7.31,7.31,0,0,1,3.28-1.09,7.39,7.39,0,0,1,3.42.47C581.69,117.4,582.1,117.82,582,118.06Z"/><path class="cls-5" d="M599.74,120c-.35.43-1.67,0-3.26-.1s-3,.24-3.26-.22c-.14-.23.09-.66.68-1.06a4.49,4.49,0,0,1,2.67-.68,4.55,4.55,0,0,1,2.59.93C599.72,119.33,599.9,119.79,599.74,120Z"/><path class="cls-6" d="M653.11,129.66a2,2,0,1,1-2-2A2,2,0,0,1,653.11,129.66Z"/><circle class="cls-6" cx="658.99" cy="129.66" r="1.96"/><path class="cls-6" d="M668.77,128.68a2,2,0,1,1-2.67-.71A2,2,0,0,1,668.77,128.68Z"/><path class="cls-6" d="M659.11,106.77h.4l1.16,0c.26,0,.55,0,.86,0l1,.14,1.2.17,1.34.33a21.84,21.84,0,0,1,6.49,2.83,22.87,22.87,0,0,1,10.59,20.37c0,.53,0,1.07-.11,1.6l-.24,1.62a23.36,23.36,0,0,1-2.18,6.39,24.66,24.66,0,0,1-4.17,5.74,24.28,24.28,0,0,1-6,4.32,21.74,21.74,0,0,1-7.33,2.25,14,14,0,0,1-2,.16,16.32,16.32,0,0,1-2,0A23.07,23.07,0,0,1,646.37,149l.24,0-8,3.22-.47.19.13-.49,2.36-8.58,0,.21a23,23,0,0,1-4.28-9.8,20.45,20.45,0,0,1-.31-5,15.88,15.88,0,0,1,.22-2.41c.07-.39.13-.79.19-1.17s.19-.76.28-1.14a22.94,22.94,0,0,1,9-13.05,21.91,21.91,0,0,1,5.33-2.81l1.2-.43,1.14-.29,1-.26c.34-.07.66-.1,1-.15.61-.07,1.14-.18,1.61-.2l1.18,0,.72,0h.24a.75.75,0,0,1-.24,0l-.72.06-1.17.08c-.46,0-1,.15-1.59.24a22.83,22.83,0,0,0-18.25,16.93c-.09.37-.2.74-.27,1.12s-.12.76-.17,1.15a15.47,15.47,0,0,0-.22,2.37,20.59,20.59,0,0,0,.33,4.92,22.51,22.51,0,0,0,4.22,9.59l.07.1,0,.12c-.75,2.77-1.53,5.64-2.34,8.58l-.34-.3,8-3.23.13-.05.11.07a22.54,22.54,0,0,0,7.71,3.24,22,22,0,0,0,3.86.49,17.9,17.9,0,0,0,1.94,0,13.56,13.56,0,0,0,1.91-.17,21.09,21.09,0,0,0,7.16-2.19,23.62,23.62,0,0,0,5.89-4.21,24.16,24.16,0,0,0,4.1-5.61,22.65,22.65,0,0,0,2.16-6.25c.08-.54.16-1.06.25-1.59s.06-1,.1-1.57a21,21,0,0,0-.05-3.08,22.64,22.64,0,0,0-10.25-17,21.94,21.94,0,0,0-6.38-2.88l-1.33-.35-1.18-.2-1-.17-.85-.06-1.16-.08A1.87,1.87,0,0,1,659.11,106.77Z"/></g><g id="Character_2" data-name="Character 2"><path class="cls-3" d="M213.26,289.86,178,295.81a75.23,75.23,0,1,0,18.82,24.55Z"/><path class="cls-5" d="M58.53,273.74a2,2,0,1,0,2-2A2,2,0,0,0,58.53,273.74Z"/><path class="cls-5" d="M50.68,273.74a2,2,0,1,0,2-2A2,2,0,0,0,50.68,273.74Z"/><path class="cls-5" d="M42.86,272.76a2,2,0,1,0,2.68-.72A2,2,0,0,0,42.86,272.76Z"/><path class="cls-5" d="M52.52,250.85a2.33,2.33,0,0,1-.39,0L51,251l-.85.06-1,.17-1.19.19-1.32.36a21.72,21.72,0,0,0-6.39,2.88,22.64,22.64,0,0,0-10.25,17,24.27,24.27,0,0,0-.05,3.08c0,.52,0,1,.11,1.58l.24,1.58a22.65,22.65,0,0,0,2.16,6.25,24,24,0,0,0,4.1,5.62A23.62,23.62,0,0,0,42.4,294a21.37,21.37,0,0,0,7.17,2.19,13.42,13.42,0,0,0,1.91.16,15.51,15.51,0,0,0,1.93,0,23.15,23.15,0,0,0,3.87-.49,22.49,22.49,0,0,0,7.7-3.24l.11-.07.13.05,8,3.23-.34.3q-1.2-4.42-2.34-8.59l0-.11.07-.1a22.56,22.56,0,0,0,4.22-9.59,20.59,20.59,0,0,0,.33-4.92,15.36,15.36,0,0,0-.21-2.37l-.18-1.15c-.06-.38-.18-.75-.27-1.12a22.8,22.8,0,0,0-18.24-16.93c-.6-.09-1.13-.21-1.6-.24l-1.17-.08-.72-.06a.75.75,0,0,1-.24,0h.25l.72,0,1.17,0c.47,0,1,.12,1.61.2.3.05.63.08,1,.15l1,.25,1.14.29,1.2.43A21.73,21.73,0,0,1,65.94,255a23,23,0,0,1,9,13.06c.09.37.21.75.28,1.13l.18,1.18a17.26,17.26,0,0,1,.23,2.41,20.88,20.88,0,0,1-.32,5A23,23,0,0,1,71,287.64l0-.21q1.14,4.15,2.36,8.57l.14.5-.48-.19-8-3.22.24,0a23.35,23.35,0,0,1-7.88,3.32,24.23,24.23,0,0,1-4,.5,18.69,18.69,0,0,1-2,0,15.86,15.86,0,0,1-2-.16,22.11,22.11,0,0,1-7.33-2.25A22.8,22.8,0,0,1,32,284.37,23.06,23.06,0,0,1,29.8,278l-.24-1.62c-.08-.54-.07-1.08-.1-1.61A22.88,22.88,0,0,1,40,254.39a21.78,21.78,0,0,1,6.5-2.83l1.34-.33,1.19-.17,1-.15.86,0,1.16,0Z"/><path class="cls-5" d="M137,237a12,12,0,0,1,21.6-.72c1.25,2.34,1.74,5.14,3.54,7.09a7,7,0,0,0,9.06.85,6.14,6.14,0,0,1-3.83,7.06l4.42.45c-2.38,5.21-8.92,7.6-14.56,6.58s-10.45-4.75-14.3-9"/><path class="cls-5" d="M137,237.06l13.64,4.47a26.5,26.5,0,0,1,10.5,13.25c.64,1.85,1.08,3.76,1.88,5.53a8.12,8.12,0,0,0,3.85,4.24c1.31.59,2.79.66,4.14,1.15A7.59,7.59,0,0,1,175.6,271a9.2,9.2,0,0,1-1.24,7c-.65,1-1.51,2-1.56,3.24a8.76,8.76,0,0,0,.49,2.4A6.6,6.6,0,0,1,162.46,290c-.88,2-2,4.06-4,5s-4.89.1-5.31-2a5.21,5.21,0,0,1-9.91-1.88l-37.39-40.77C111.42,235.4,133.24,236.72,137,237.06Z"/><path class="cls-12" d="M143.34,251.24a4.67,4.67,0,0,1,4.17,4.72h0l-2.64,62.79c-.1,7.41-13.59,16.18-21.55,16h0c-8-.17-5.68-8.68-5.79-15.73-.2-11.78-.19-16.21-.2-16.14s-10.15-1.68-12.26-14.9c-1-6.57-.71-17.35-.16-26.16.51-7.93,5.77-17.66,13.69-16.82Z"/><path class="cls-5" d="M108.36,270.39A1.7,1.7,0,0,0,110,272.1a1.63,1.63,0,0,0,1.75-1.53,1.69,1.69,0,0,0-1.64-1.71A1.62,1.62,0,0,0,108.36,270.39Z"/><path class="cls-5" d="M107.26,267.44c.21.22,1.5-.73,3.33-.73s3.16.92,3.36.7-.11-.5-.7-.93a4.72,4.72,0,0,0-2.69-.83,4.5,4.5,0,0,0-2.65.86C107.35,266.94,107.15,267.34,107.26,267.44Z"/><path class="cls-5" d="M126.24,270.39a1.69,1.69,0,0,0,1.63,1.71,1.64,1.64,0,0,0,1.76-1.53,1.7,1.7,0,0,0-1.64-1.71A1.62,1.62,0,0,0,126.24,270.39Z"/><path class="cls-5" d="M125.23,267.78c.22.22,1.5-.73,3.33-.73s3.17.92,3.37.7-.12-.5-.7-.93a4.68,4.68,0,0,0-2.7-.82,4.43,4.43,0,0,0-2.65.85C125.32,267.28,125.13,267.68,125.23,267.78Z"/><path class="cls-5" d="M118.6,281.3a12.22,12.22,0,0,0-3-.53c-.47,0-.91-.14-1-.46a2.33,2.33,0,0,1,.31-1.38l1.38-3.55c1.92-5.05,3.31-9.2,3.1-9.27s-1.92,3.95-3.84,9l-1.32,3.57a2.67,2.67,0,0,0-.24,1.83,1.14,1.14,0,0,0,.76.68,3.11,3.11,0,0,0,.8.11A11.42,11.42,0,0,0,118.6,281.3Z"/><path class="cls-13" d="M117.33,302.89a33.83,33.83,0,0,0,17.75-4.72s-4.3,9.08-17.57,7.84Z"/><path class="cls-13" d="M119.37,285.7a3.3,3.3,0,0,1,2.95-1.22,3,3,0,0,1,2.08,1.11,1.91,1.91,0,0,1,.15,2.18,2.22,2.22,0,0,1-2.4.6,7.09,7.09,0,0,1-2.34-1.39,2.05,2.05,0,0,1-.52-.54.62.62,0,0,1,0-.68"/><path class="cls-5" d="M124,282.57c-.3,0-.3,2-2,3.36s-3.81,1.19-3.83,1.47c0,.12.47.38,1.37.41a5,5,0,0,0,3.19-1.11,4.32,4.32,0,0,0,1.55-2.83C124.34,283,124.12,282.55,124,282.57Z"/><path class="cls-5" d="M124.41,264.58c.18.5,2,.26,4.15.52s3.88.84,4.17.4c.13-.21-.18-.68-.88-1.16a6.86,6.86,0,0,0-3.08-1.08,6.94,6.94,0,0,0-3.25.38C124.73,264,124.33,264.35,124.41,264.58Z"/><path class="cls-5" d="M107.93,262.16c.32.41,1.58,0,3.1,0s2.79.28,3.09-.15c.13-.21-.07-.63-.63-1a4.5,4.5,0,0,0-5,.15C108,261.53,107.79,262,107.93,262.16Z"/><path class="cls-12" d="M146,272.38a3.35,3.35,0,0,1,3.47.18,6.13,6.13,0,0,1-3.88,11.38"/><path class="cls-5" d="M125.21,240.61c-4.83.16-8.49,1.62-12.73,3.93a18.41,18.41,0,0,0-9.09,10.78,3.73,3.73,0,0,0,.1,3,2.93,2.93,0,0,0,3.64.78,8.4,8.4,0,0,0,3-2.71,5.67,5.67,0,0,0,11-.13,5,5,0,0,0,5.1,4.55,6.53,6.53,0,0,0,5.64-4.44,16.58,16.58,0,0,0,2.34,6.45c1.35,1.87,3.8,3.15,6,2.44-.32,2-.62,4,.08,5.91s2.78,3.38,4.67,2.73,2.55-2.8,3-4.69a43.71,43.71,0,0,0,1.42-11.07,16.24,16.24,0,0,0-13.12-16.45,42.92,42.92,0,0,0-11.54-1"/><path class="cls-13" d="M147,280c0-.09.51.12,1.15-.18a2.3,2.3,0,0,0,1.14-2.25,2.33,2.33,0,0,0-1.42-2.12c-.66-.27-1.15-.14-1.17-.24s.45-.42,1.32-.23a2.48,2.48,0,0,1,1.3.81,2.94,2.94,0,0,1,.65,1.74,2.63,2.63,0,0,1-1.65,2.75C147.38,280.51,146.9,280.05,147,280Z"/><ellipse class="cls-14" cx="147.36" cy="283.82" rx="1.73" ry="1.72"/><path class="cls-14" d="M137.18,236.39a5.27,5.27,0,0,1,2.16-.25,11.05,11.05,0,0,1,5,1.48,10.92,10.92,0,0,1,3.79,3.6,5,5,0,0,1,.86,2c-.08,0-.4-.72-1.17-1.78a12,12,0,0,0-3.74-3.36,12.36,12.36,0,0,0-4.79-1.56C138,236.38,137.2,236.48,137.18,236.39Z"/><path class="cls-6" d="M144.11,236.4a1.37,1.37,0,0,1-.05-.42,3.23,3.23,0,0,1,.26-1.18,4.81,4.81,0,0,1,3.42-2.64c1.89-.52,4.28.45,5.94,2.28a13.28,13.28,0,0,1,2.16,3.21c.59,1.2,1.07,2.5,1.58,3.8a24.24,24.24,0,0,0,1.69,3.67,10.52,10.52,0,0,0,2.41,2.81,6.33,6.33,0,0,0,3,1.37,5.06,5.06,0,0,0,2.82-.4,6.07,6.07,0,0,0,3-2.89,15.74,15.74,0,0,0,.49-1.5,1.28,1.28,0,0,1,0,.41,5.12,5.12,0,0,1-.29,1.17,6.12,6.12,0,0,1-3,3.15,5.37,5.37,0,0,1-3,.48,6.56,6.56,0,0,1-3.23-1.41,10.83,10.83,0,0,1-2.55-2.93,23.73,23.73,0,0,1-1.75-3.74c-1-2.62-2-5.13-3.6-6.88s-3.76-2.67-5.51-2.24a4.68,4.68,0,0,0-3.32,2.37A5,5,0,0,0,144.11,236.4Z"/><path class="cls-6" d="M119.15,256.81s-.05-.12-.09-.36a8.52,8.52,0,0,1-.12-1.07,15.55,15.55,0,0,1,.24-3.92,17.52,17.52,0,0,1,2-5.47A16.77,16.77,0,0,1,126,240.7a19.34,19.34,0,0,1,6.52-2.93,18.91,18.91,0,0,1,5.8-.59,14.14,14.14,0,0,1,3.86.7,7.82,7.82,0,0,1,1,.39c.23.1.34.17.33.18a18.71,18.71,0,0,0-10.86-.22,19.51,19.51,0,0,0-6.33,2.9,16.71,16.71,0,0,0-4.69,5.11,18,18,0,0,0-2.08,5.3A23.64,23.64,0,0,0,119.15,256.81Z"/><path class="cls-6" d="M127.49,255.92a3.47,3.47,0,0,1,0-1,15.16,15.16,0,0,1,.38-2.78A17.76,17.76,0,0,1,140,239.06a15.79,15.79,0,0,1,2.74-.59,2.91,2.91,0,0,1,1,0c0,.09-1.45.21-3.66,1a19.17,19.17,0,0,0-7.54,4.9,18.81,18.81,0,0,0-4.32,7.89C127.6,254.45,127.59,255.93,127.49,255.92Z"/><path class="cls-8" d="M125.21,334c-2.9-8.87-10-17.9-17.75-14.64-8.65,3.62-11,8.22-15.8,15.34S84,350,81.15,358c-1.12,3.15-2.2,6.81-.48,9.68,1.48,2.48,4.53,3.46,7.32,4.2q10.82,2.88,21.82,4.93c2.94.54,6.17,1,8.77-.47,3.3-1.88,4.31-6.07,5-9.8l7.24-39.26"/><path class="cls-8" d="M116.88,315.09,105.5,320c-5.75,4.53-7.38,12.29-7.18,19.6l-4.73,80.14s33.2,20.52,72-.94c1-.56-6.49-18.89-6.49-18.89l10.56-40c.82-5.75,1.32-17.68-.19-23.34-3.85-14.53-14.15-18.87-24.73-21.78,0,0-10.58,8.88-20.9,7C123.83,321.78,117.53,321.2,116.88,315.09Z"/><g class="cls-9"><path d="M101.6,381.81q9.84,14.28,19.7,28.55c2.57,3.72,5.24,7.54,9,10A17,17,0,0,0,156.28,403a4.08,4.08,0,0,0-.88-2.14,3.33,3.33,0,0,0-3.36-.64,18.27,18.27,0,0,0-3.22,1.61c-6.19,3.28-14,1.52-19.84-2.4s-10.07-9.67-14.51-15.08c-1.64-2-3.44-4.05-5.87-4.94s-5.66-.17-6.69,2.21"/></g><ellipse class="cls-4" cx="134.78" cy="335.76" rx="6.8" ry="6.78"/><path class="cls-4" d="M103.08,330a6.8,6.8,0,1,0,6.8-6.79A6.79,6.79,0,0,0,103.08,330Z"/><path class="cls-4" d="M97.59,394.93a6.8,6.8,0,1,0,6.8-6.78A6.79,6.79,0,0,0,97.59,394.93Z"/><ellipse class="cls-4" cx="116.68" cy="414.46" rx="6.8" ry="6.78"/><ellipse class="cls-4" cx="148.38" cy="416.11" rx="6.8" ry="6.78"/><ellipse class="cls-4" cx="121.52" cy="374.34" rx="6.8" ry="6.78"/><ellipse class="cls-4" cx="114.72" cy="352.95" rx="6.8" ry="6.78"/><path class="cls-5" d="M114.72,316.74a15,15,0,0,0,8.78,7.18,17.9,17.9,0,0,0,7.29.74,22.1,22.1,0,0,0,7.06-2.14,29,29,0,0,0,5.13-3.24c1.36-1.06,2.4-2,3.11-2.68a11.83,11.83,0,0,1,1.11-1,6.56,6.56,0,0,1-1,1.17,29.94,29.94,0,0,1-3,2.83,27.51,27.51,0,0,1-5.15,3.38,22,22,0,0,1-7.21,2.23,17.81,17.81,0,0,1-7.5-.81,15.39,15.39,0,0,1-5.36-3,12.15,12.15,0,0,1-2.64-3.2,8.23,8.23,0,0,1-.5-1A1.31,1.31,0,0,1,114.72,316.74Z"/><path class="cls-8" d="M149,316.28c7.78,3.25,15.87,6.73,21.24,13.21s7.36,15.55,7,24.09-2.89,16.83-5.36,25c-1,3.21-2.26,6.79-5.34,8.1-2.67,1.12-5.71.11-8.4-.94q-10.42-4-20.51-8.89c-2.7-1.3-5.57-2.83-6.8-5.55-1.55-3.46.12-7.44,1.78-10.85L150,324.53"/><ellipse class="cls-4" cx="165.58" cy="357.72" rx="6.8" ry="6.78"/><ellipse class="cls-4" cx="147.57" cy="370.12" rx="6.8" ry="6.78"/><path class="cls-4" d="M149.37,336.82a6.67,6.67,0,1,0,6.67-6.65A6.66,6.66,0,0,0,149.37,336.82Z"/><path class="cls-12" d="M135.55,375.81l-1.73,6.68L99.26,357.3l-10.58-15a9.55,9.55,0,0,0-6-3.87h0A9.57,9.57,0,0,0,75.34,340l-9.84,7s.26,5.3,2.66,4.24,7.17-3.71,7.17-3.71l1.33,12.73,5.85,4.24L88.36,369l39,38.73a17.43,17.43,0,0,0,27.84-4.54L161,386.74Z"/><path class="cls-13" d="M133,381.54c0-.06.66.16,1.45.89a7.67,7.67,0,0,1,2,3.58,14.21,14.21,0,0,1,.37,4.07,5,5,0,0,1-.2,1.68,6.14,6.14,0,0,1-.17-1.68,19,19,0,0,0-.51-3.94,8.26,8.26,0,0,0-1.78-3.45C133.46,381.93,132.9,381.61,133,381.54Z"/><path class="cls-13" d="M75.27,348.15s.12-.44.52-1a4.69,4.69,0,0,1,2.2-1.77,2.82,2.82,0,0,1,2.78.53c.57.55.55,1.08.49,1.07s-.2-.41-.72-.79a2.72,2.72,0,0,0-2.38-.32,5.29,5.29,0,0,0-2.08,1.51C75.62,347.86,75.34,348.19,75.27,348.15Z"/><path class="cls-13" d="M81.46,351.55c-.06.05-.32-.19-.79-.45a4.12,4.12,0,0,0-2-.54,4.31,4.31,0,0,0-2,.55c-.47.27-.73.51-.79.46s.12-.38.59-.76a3.57,3.57,0,0,1,2.19-.77,3.61,3.61,0,0,1,2.19.75C81.34,351.17,81.51,351.51,81.46,351.55Z"/><path class="cls-5" d="M135.55,375.81a2.08,2.08,0,0,1-.66-.16,3.64,3.64,0,0,1-1.56-1.18,5.67,5.67,0,0,1-1.14-2.89,8.43,8.43,0,0,1,.73-4c.57-1.41,1.42-2.84,2.15-4.44a45.34,45.34,0,0,0,2-5.27c1.18-3.79,2-8.09,3.23-12.55a39.91,39.91,0,0,1,5.05-12,19.4,19.4,0,0,1,7.94-7,14.26,14.26,0,0,1,7-1.42,8.9,8.9,0,0,1,2.58.49c0,.06-.91-.23-2.59-.29a14.71,14.71,0,0,0-6.83,1.55,19.37,19.37,0,0,0-7.69,6.91,40.13,40.13,0,0,0-4.95,11.85c-1.19,4.43-2.06,8.74-3.28,12.55a42,42,0,0,1-2,5.31c-.76,1.62-1.62,3-2.2,4.41a8.22,8.22,0,0,0-.78,3.87,5.56,5.56,0,0,0,1,2.79,3.65,3.65,0,0,0,1.44,1.2C135.32,375.74,135.56,375.78,135.55,375.81Z"/><path class="cls-5" d="M97.2,354.1a74.21,74.21,0,0,1,.85-8.67,71.57,71.57,0,0,1,1.38-8.61,73.07,73.07,0,0,1-.86,8.67A75.94,75.94,0,0,1,97.2,354.1Z"/><path class="cls-12" d="M81.65,369l-1.83,14.44-22-18.77-12,2.91S58.18,393.6,68,403.93s15.1,11.79,18.8,12c5.09.22,7.42-6,7.42-6L96.42,374Z"/><path class="cls-13" d="M79.9,383A14.13,14.13,0,0,1,82,390.48a32.19,32.19,0,0,1-1-3.74A33.93,33.93,0,0,1,79.9,383Z"/><path class="cls-6" d="M55.67,328H39.1c-2.51,0-4.75,2.91-3.85,5.28l16.67,32.47a3.77,3.77,0,0,0,3.36,2.05l20.21,0a2.9,2.9,0,0,0,2.2-4.28L61.61,331.71A6.61,6.61,0,0,0,55.67,328Z"/><path class="cls-5" d="M54.55,330H38a2.77,2.77,0,0,0-2.48,4l16.28,31.76a3.76,3.76,0,0,0,3.35,2.05h20a1.63,1.63,0,0,0,1.46-2.37L60.49,333.67A6.61,6.61,0,0,0,54.55,330Z"/><path class="cls-12" d="M53.15,343.27l-10.09,4-2.16,8.13,4.86,12.1,17.82,2.59-5.22-5.33.67-4.65s5-1.56,5.1-2.32-.62-3.31-1.38-3.44-6,1.82-6,1.82,6.18-4.88,6-5.67-.83-2.79-2.06-3S49.51,352,49.51,352l-1.62,3.69-1.41-5.9S55.34,347.3,53.15,343.27Z"/><path class="cls-13" d="M54.42,362.33c-.06,0-.25-.35-.34-1a5.32,5.32,0,0,1,.3-2.54,5.25,5.25,0,0,1,1.43-2.13c.49-.44.88-.6.91-.54a7.74,7.74,0,0,0-2.3,6.22Z"/><path class="cls-13" d="M49.62,360.57a22.27,22.27,0,0,0,.4-2.65,11.66,11.66,0,0,1,.51-2.92,4.32,4.32,0,0,1,.93-1.57,4.56,4.56,0,0,1,1.65-1c2.41-.88,4.58-1.58,6.17-2.1a15.49,15.49,0,0,1,2.61-.72,14.15,14.15,0,0,1-2.49,1.07c-1.55.6-3.73,1.37-6.1,2.23a4.12,4.12,0,0,0-1.47.91,3.93,3.93,0,0,0-.85,1.37,12.41,12.41,0,0,0-.59,2.81A5.43,5.43,0,0,1,49.62,360.57Z"/><path class="cls-13" d="M47.31,358.74c-.14,0-.11-.91.06-2s.44-1.93.58-1.91.11.92-.06,2S47.45,358.77,47.31,358.74Z"/><path class="cls-7" d="M47,336.1A2.11,2.11,0,1,0,49.15,334,2.1,2.1,0,0,0,47,336.1Z"/><path class="cls-13" d="M88.36,369a3,3,0,0,1,.62.49l1.65,1.47c1.47,1.36,3.45,3.2,5.82,5.38l.08.08v.11c-.27,3.36-.57,7.32-.9,11.56-.46,6.2-.82,11.82-1,15.89-.08,2-.16,3.6-.21,4.82a14.12,14.12,0,0,1-.12,1.77,10.35,10.35,0,0,1-.09-1.77c0-1.15,0-2.8.06-4.84.1-4.07.4-9.7.86-15.91.31-4.25.65-8.22,1-11.56l.07.18-5.69-5.52-1.57-1.57A3.69,3.69,0,0,1,88.36,369Z"/></g><g id="Character_1" data-name="Character 1"><path class="cls-3" d="M255.48,114.7,219.94,97.07a75.47,75.47,0,1,0,6.77,34.55Z"/><path class="cls-5" d="M219.56,46.43a2,2,0,1,1-2-2A2,2,0,0,1,219.56,46.43Z"/><path class="cls-5" d="M227.4,46.43a2,2,0,1,1-2-2A2,2,0,0,1,227.4,46.43Z"/><path class="cls-5" d="M235.23,45.45a2,2,0,1,1-2.68-.72A2,2,0,0,1,235.23,45.45Z"/><path class="cls-5" d="M225.56,23.53a2,2,0,0,1,.4,0l1.16,0c.26,0,.55,0,.86,0l1,.14,1.2.17,1.34.34A21.59,21.59,0,0,1,238,27.08a23.26,23.26,0,0,1,6.72,6.54,23.66,23.66,0,0,1,3.81,10.68,25.17,25.17,0,0,1,.06,3.14c0,.53,0,1.07-.11,1.6l-.24,1.62a23.25,23.25,0,0,1-2.18,6.39,24.66,24.66,0,0,1-4.17,5.74,24.28,24.28,0,0,1-6,4.32,21.75,21.75,0,0,1-7.32,2.25,14.27,14.27,0,0,1-2,.17,18.65,18.65,0,0,1-2,0,23.15,23.15,0,0,1-11.83-3.81l.24,0L205,69l-.47.19.13-.49,2.36-8.58,0,.21a23,23,0,0,1-4.28-9.8,20.45,20.45,0,0,1-.31-5,16,16,0,0,1,.22-2.41c.07-.39.13-.78.19-1.17s.19-.76.28-1.14a22.94,22.94,0,0,1,8.95-13.05,21.91,21.91,0,0,1,5.33-2.81l1.2-.43,1.14-.29,1-.26,1-.15c.61-.07,1.14-.18,1.61-.2l1.18,0,.72,0h.24l-.24,0-.72.05-1.17.08c-.46,0-1,.15-1.59.24a22.83,22.83,0,0,0-18.25,16.93c-.09.37-.2.74-.27,1.12s-.12.77-.17,1.15a15.47,15.47,0,0,0-.22,2.37,20.63,20.63,0,0,0,.33,4.93A22.61,22.61,0,0,0,207.48,60l.08.09,0,.12c-.75,2.77-1.53,5.64-2.34,8.58l-.34-.3,8-3.23.13-.05.11.07a22.62,22.62,0,0,0,7.71,3.24,22,22,0,0,0,3.87.49,17.76,17.76,0,0,0,1.93,0,15.22,15.22,0,0,0,1.91-.16,21.45,21.45,0,0,0,7.17-2.2,23.75,23.75,0,0,0,5.88-4.21,24.16,24.16,0,0,0,4.1-5.61,22.65,22.65,0,0,0,2.16-6.25c.08-.53.16-1.06.25-1.59s.06-1.05.1-1.57a21,21,0,0,0-.05-3.08,22.64,22.64,0,0,0-10.25-17,21.94,21.94,0,0,0-6.38-2.88l-1.33-.35-1.18-.2-1-.16c-.31,0-.6-.05-.85-.07L226,23.58A1.87,1.87,0,0,1,225.56,23.53Z"/><path class="cls-5" d="M197,120.45c.15,0,.15,7.09,0,15.82s-.37,15.82-.51,15.82-.15-7.09,0-15.83S196.9,120.45,197,120.45Z"/><path class="cls-5" d="M168,83a1.77,1.77,0,0,1,0,.53,12.53,12.53,0,0,1-.25,1.48,17.45,17.45,0,0,1-2.1,5.11,18,18,0,0,1-5.77,5.81,17.75,17.75,0,0,1-19.18-.55,17.94,17.94,0,0,1-5.43-6.13A17.16,17.16,0,0,1,133.4,84a10.7,10.7,0,0,1-.16-1.49,1.72,1.72,0,0,1,0-.52s.09.71.36,2a18.58,18.58,0,0,0,1.94,5.08A17.85,17.85,0,0,0,140.92,95a17.49,17.49,0,0,0,18.65.53,17.94,17.94,0,0,0,5.7-5.6,18.26,18.26,0,0,0,2.22-5C167.84,83.7,167.92,83,168,83Z"/><path class="cls-5" d="M106.92,122.58c.15,0,.27,6.91.27,15.43s-.11,15.43-.25,15.43-.26-6.9-.27-15.43S106.78,122.58,106.92,122.58Z"/><path class="cls-5" d="M136.45,80.22l29.7,0S193,89.78,201.74,96.47s22.12,53.84,22.12,53.84L197,149.52,195,190c-27.47,19.56-60.44,18.13-85.9,1l-2-38.34L84.79,152c-7.55-.23-7.9-2.3-7.9-2.3S94.06,104.62,99.3,95.89c4.56-7.61,31.11-14.41,37.15-15.67"/><path class="cls-7" d="M207.9,107.27a7.25,7.25,0,0,1-1.06.62,10.26,10.26,0,0,1-3.4.93,16.11,16.11,0,0,1-5.55-.44,34.32,34.32,0,0,1-6.9-2.64,48.44,48.44,0,0,0-8.21-3.35,19.6,19.6,0,0,0-10,.12,45.44,45.44,0,0,0-10.34,4.37c-3.42,1.89-6.9,4-10.73,5.74a26.34,26.34,0,0,1-11.87,2.63,31.34,31.34,0,0,1-11-2.81c-3.34-1.44-6.34-3.11-9.2-4.55a58.22,58.22,0,0,0-8.15-3.54,22.93,22.93,0,0,0-12.65-.84,15.69,15.69,0,0,0-3.27,1.2c-.37.17-.62.33-.81.42a1.37,1.37,0,0,1-.28.14s.08-.07.25-.18.43-.29.79-.48a15,15,0,0,1,3.27-1.3,22.84,22.84,0,0,1,12.81.69,57.61,57.61,0,0,1,8.24,3.5c2.87,1.43,5.88,3.09,9.18,4.5a31.13,31.13,0,0,0,10.83,2.74,25.82,25.82,0,0,0,11.64-2.6c3.78-1.69,7.25-3.81,10.7-5.7a45.1,45.1,0,0,1,10.47-4.4,20,20,0,0,1,10.24-.07,48.28,48.28,0,0,1,8.26,3.44,34.65,34.65,0,0,0,6.8,2.68,16.23,16.23,0,0,0,5.47.53,10.56,10.56,0,0,0,3.37-.83C207.52,107.47,207.88,107.24,207.9,107.27Z"/><path class="cls-7" d="M217.65,129.86s-.43-.25-1.28-.64a13,13,0,0,0-3.92-1.06,17.85,17.85,0,0,0-6.39.47,30.27,30.27,0,0,0-7.82,3.37c-2.76,1.57-5.63,3.57-8.91,5.41s-7.08,3.51-11.39,3.61-8.64-1.35-12.81-3.2-8.43-4.06-13.14-5.14a36,36,0,0,0-14,0c-4.5.75-8.75,2-12.82,3.06a85.66,85.66,0,0,1-11.73,2.45A34,34,0,0,1,103,138a22,22,0,0,1-13-7.32,15.53,15.53,0,0,1-2.14-3.51l-.37-1a1.41,1.41,0,0,1-.1-.35,17.13,17.13,0,0,0,2.77,4.73,22,22,0,0,0,12.88,7.09,34.3,34.3,0,0,0,10.31.13,86,86,0,0,0,11.65-2.5c4.07-1.08,8.33-2.33,12.87-3.1a36.68,36.68,0,0,1,14.2,0c4.8,1.11,9,3.36,13.22,5.19s8.41,3.32,12.6,3.18,7.94-1.75,11.19-3.51,6.14-3.79,8.93-5.35a30.36,30.36,0,0,1,7.94-3.33,17.5,17.5,0,0,1,6.49-.39,12.66,12.66,0,0,1,3.94,1.17A7.68,7.68,0,0,1,217.65,129.86Z"/><path class="cls-7" d="M196.15,166.93a3.62,3.62,0,0,1-.85.41,7.48,7.48,0,0,1-2.67.42,12.11,12.11,0,0,1-4.18-.86,52.71,52.71,0,0,1-5.08-2.47,19.67,19.67,0,0,0-6.38-2.16,25.5,25.5,0,0,0-7.73.12c-5.45.81-11,3.32-17,5.57a54.6,54.6,0,0,1-9,2.6,52.32,52.32,0,0,1-23.22-.67,48.61,48.61,0,0,1-9.3-3.38c-1.06-.49-1.84-1-2.38-1.25l-.61-.35a.82.82,0,0,1-.2-.13.67.67,0,0,1,.22.09l.64.3c.55.26,1.34.7,2.42,1.15a50.1,50.1,0,0,0,9.3,3.21,52.94,52.94,0,0,0,31.91-2.06c5.93-2.23,11.55-4.75,17.09-5.55a25.39,25.39,0,0,1,7.87-.07,20,20,0,0,1,6.48,2.25c1.85,1,3.48,1.92,5,2.53a12.37,12.37,0,0,0,4.09.93A8.13,8.13,0,0,0,196.15,166.93Z"/><path class="cls-7" d="M195.29,187.9a26,26,0,0,0-2.64-2.56,17.41,17.41,0,0,0-9.16-3.63,16.08,16.08,0,0,0-6.77.81,24.54,24.54,0,0,0-6.78,4c-2.19,1.75-4.33,3.78-6.71,5.73A24.31,24.31,0,0,1,155,197a22.73,22.73,0,0,1-9.49.6,51.15,51.15,0,0,1-8.63-2c-5.39-1.65-10.08-3.61-14.16-4.76a23.66,23.66,0,0,0-9.89-1,22.36,22.36,0,0,0-3.56.91.7.7,0,0,1,.22-.11l.66-.28a6.09,6.09,0,0,1,1.1-.37,10,10,0,0,1,1.55-.35,23,23,0,0,1,10,.88c4.13,1.11,8.83,3,14.21,4.65a51.88,51.88,0,0,0,8.55,1.95,22.69,22.69,0,0,0,9.28-.59,24.19,24.19,0,0,0,8.09-4.63c2.36-1.92,4.51-3.95,6.73-5.7a24.79,24.79,0,0,1,6.94-4,16.38,16.38,0,0,1,6.95-.76,17.32,17.32,0,0,1,9.25,3.83A12.9,12.9,0,0,1,195.29,187.9Z"/><g class="cls-9"><path d="M106.2,184c6,.47,11.4-3.58,15.87-7.65s9.16-8.6,15.14-9.46c6.28-.9,12.65,2.5,18.87,1.26,2.79-.56,5.4-2,8.25-2.16,4.7-.18,8.64,3.31,12,6.58l13.19,12.75c1.34,1.3,3.91,3.25,5.6,2.44l.32-6.58c-2.1-11.83-4.39-24-13.5-31.82-6.76-5.81-16-7.81-24.82-8.82-10.74-1.22-22.35-1.08-31.36,4.88-6,4-10.25,10.2-13,16.85S108.53,176,107.11,183"/></g><path class="cls-13" d="M221.66,150.24c.26,1.56,4.59,26.54,3.81,31.48s-2.08,11.44-7.8,13.78-14-.78-18.71-8.84-25-36.38-25-36.38l-15.07-1.82V123.25l28.84,18.36,13.26,12-1-4Z"/><rect class="cls-6" x="139.3" y="109.85" width="29.52" height="47.82" rx="3.38"/><path class="cls-15" d="M186.51,141c.1-.11,6.37,5.31,14,12.1s13.75,12.39,13.66,12.5-6.37-5.31-14-12.11S186.42,141.08,186.51,141Z"/><path class="cls-13" d="M80.81,151.66s-3.59,31.05-3.59,34.59,3.18,12,12,12.74,20.17-19.11,20.17-19.11l18.4-27.95-8.14-15.21-15.91,15.86Z"/><path class="cls-13" d="M163,128.54l-23.82-.66-19.46,8.84,8.14,15.21L142,149.86s8.33-1.36,8.85-1.87c1-1,1.79-3.91,2.36-6.47a12,12,0,0,0-.84-7.76l-.53-.46s7.84-1.64,9.14-2.21C164.14,129.71,163,128.54,163,128.54Z"/><path class="cls-15" d="M119.67,136.72a8.12,8.12,0,0,1-.93,1.13c-.62.71-1.54,1.71-2.69,2.93-2.31,2.44-5.57,5.74-9.21,9.34l-9.31,9.22-2.81,2.81a7.71,7.71,0,0,1-1.07,1,7.27,7.27,0,0,1,.93-1.13c.62-.71,1.54-1.7,2.69-2.92,2.3-2.45,5.57-5.75,9.21-9.35l9.3-9.22,2.81-2.81A8.06,8.06,0,0,1,119.67,136.72Z"/><path class="cls-15" d="M143.14,135.61a10.16,10.16,0,0,1,9.37-1.86,27.65,27.65,0,0,0-4.81.27A28.51,28.51,0,0,0,143.14,135.61Z"/><path class="cls-15" d="M153.86,138.27a18.91,18.91,0,0,0-4.29-.36,18.9,18.9,0,0,0-4.15,1.12,7.72,7.72,0,0,1,8.44-.76Z"/><path class="cls-15" d="M152.36,142.65c-.06.06-.32-.11-.77-.27a3.81,3.81,0,0,0-3.52.47c-.39.28-.6.51-.67.47s0-.36.43-.75a3.37,3.37,0,0,1,3.92-.53C152.22,142.32,152.4,142.61,152.36,142.65Z"/><path class="cls-13" d="M152.18,95.18h0a14.83,14.83,0,0,0,14-14.94c0-4.76-.1-8.83-.1-8.83s12-1.87,12.2-13.92-1.94-39.7-1.94-39.7h0a41.85,41.85,0,0,0-42.06,5.29l-1.79,1.37,4.08,57A14.83,14.83,0,0,0,152.18,95.18Z"/><path class="cls-15" d="M166.07,71.24a28,28,0,0,1-15.7-4.46s3.71,8.66,15.73,7.58Z"/><path class="cls-13" d="M134,36.93c-.21-.09-8.28-2.45-8,5.79s8.48,6.27,8.49,6S134,36.93,134,36.93Z"/><path class="cls-15" d="M131.8,45.71s-.14.11-.38.23a1.44,1.44,0,0,1-1.07.05c-.88-.29-1.65-1.65-1.74-3.13a4.78,4.78,0,0,1,.33-2.07A1.66,1.66,0,0,1,130,39.66a.74.74,0,0,1,.86.36c.11.23.07.4.11.41s.17-.14.1-.48a1,1,0,0,0-.34-.51,1.08,1.08,0,0,0-.8-.18,2,2,0,0,0-1.46,1.32,4.82,4.82,0,0,0-.43,2.31c.11,1.66,1,3.19,2.21,3.49a1.58,1.58,0,0,0,1.31-.26C131.79,45.91,131.83,45.73,131.8,45.71Z"/><path class="cls-5" d="M172.36,38.1a1.72,1.72,0,0,1-1.66,1.74,1.64,1.64,0,0,1-1.77-1.55,1.72,1.72,0,0,1,1.66-1.74A1.64,1.64,0,0,1,172.36,38.1Z"/><path class="cls-5" d="M174,34.74c-.21.22-1.51-.74-3.37-.74s-3.2.93-3.4.7.11-.5.71-.93a4.65,4.65,0,0,1,2.72-.84,4.48,4.48,0,0,1,2.68.86C173.94,34.23,174.14,34.63,174,34.74Z"/><path class="cls-5" d="M153.81,38.32a1.72,1.72,0,0,1-1.66,1.73,1.64,1.64,0,0,1-1.77-1.55A1.72,1.72,0,0,1,152,36.76,1.65,1.65,0,0,1,153.81,38.32Z"/><path class="cls-5" d="M155.84,35.08c-.22.22-1.52-.74-3.37-.73s-3.21.93-3.41.7.12-.51.71-.94a4.75,4.75,0,0,1,2.73-.84,4.53,4.53,0,0,1,2.68.87C155.75,34.57,155.94,35,155.84,35.08Z"/><path class="cls-5" d="M162.56,48.81a11.54,11.54,0,0,1,3-.54c.47-.05.92-.15,1-.47a2.48,2.48,0,0,0-.31-1.4c-.45-1.14-.91-2.34-1.4-3.6-1.94-5.12-3.35-9.34-3.14-9.41s1.95,4,3.89,9.14l1.34,3.62a2.71,2.71,0,0,1,.24,1.85,1.19,1.19,0,0,1-.77.69,3.18,3.18,0,0,1-.81.11A12.56,12.56,0,0,1,162.56,48.81Z"/><path class="cls-5" d="M157.11,50.09c.3,0,.3,2,2,3.42S163,54.71,163,55c0,.13-.48.39-1.38.42a5,5,0,0,1-3.24-1.13,4.37,4.37,0,0,1-1.57-2.87C156.75,50.57,157,50.08,157.11,50.09Z"/><path class="cls-14" d="M156.32,27.83c-.19.5-2,.26-4.21.52s-3.92.86-4.21.41c-.13-.22.17-.69.88-1.18a6.92,6.92,0,0,1,3.13-1.09,7,7,0,0,1,3.29.38C156,27.19,156.39,27.59,156.32,27.83Z"/><path class="cls-14" d="M173.35,29.38c-.32.42-1.6,0-3.13,0s-2.83.28-3.13-.16c-.13-.21.07-.63.64-1a4.53,4.53,0,0,1,5.05.16C173.32,28.74,173.49,29.17,173.35,29.38Z"/><path class="cls-16" d="M182.18,10.19a4.46,4.46,0,0,0-1.64-4,3.16,3.16,0,0,0-4.09.31,3.67,3.67,0,0,0-3.16-4.46c-2-.13-3.64,1.36-5.54,1.88a8.9,8.9,0,0,1-5.62-.65c-1.79-.72-3.45-1.71-5.26-2.37a15.41,15.41,0,0,0-19.7,9,6.85,6.85,0,0,0-7.25,2.75,11.25,11.25,0,0,0-1.72,7.9A25.58,25.58,0,0,0,129.58,26c0,.15,0,.3,0,.46.12,6.62.87,14.4,3.7,14.44,4.92.08,3.75-9.2,3.75-9.2,6-2.34,3.79-11.39,5.3-12.76s4.67-4.57,17.33,1.9c4.91,2.51,11.45,2.43,15,1.62l.32-.06.07,0,.11,0A11.56,11.56,0,0,0,178.4,21a6.37,6.37,0,0,0,2.68-3,3.51,3.51,0,0,0-.7-3.77A7.69,7.69,0,0,0,182.18,10.19Z"/></g><g id="Device"><path class="cls-5" d="M429.29,410l-129.72-.6A28.25,28.25,0,0,1,271.45,381l1.37-325.2a28.27,28.27,0,0,1,28.39-28.14l129.72.6a28.26,28.26,0,0,1,28.12,28.38l-1.37,325.2A28.27,28.27,0,0,1,429.29,410Z"/><path class="cls-7" d="M430.74,39.48l-25.15-.12a6.25,6.25,0,0,0-6.13,6.36l0,4.56a6.26,6.26,0,0,1-6.14,6.36l-49-.23A6.26,6.26,0,0,1,338.2,50l0-4.57A6.26,6.26,0,0,0,332.14,39l-8.85,0-22-.1A19.79,19.79,0,0,0,281.4,58.59L280.06,376a19.79,19.79,0,0,0,19.7,19.87l129.46.6a19.8,19.8,0,0,0,19.88-19.71l1.34-317.42A19.79,19.79,0,0,0,430.74,39.48Z"/><path class="cls-8" d="M311.74,89.67a6.22,6.22,0,1,1-6.22-6.22A6.22,6.22,0,0,1,311.74,89.67Z"/><path class="cls-8" d="M323.35,85H427.74a5.77,5.77,0,0,1,5.77,5.78v15.81a5.77,5.77,0,0,1-5.77,5.78h-93.5a5.78,5.78,0,0,1-5.78-5.78v-17Z"/><path class="cls-4" d="M416.78,94.8c0,.15-16,.26-35.8.26s-35.8-.11-35.8-.26,16-.26,35.8-.26S416.78,94.66,416.78,94.8Z"/><path class="cls-4" d="M416.78,101.25c0,.14-16,.26-35.8.26s-35.8-.12-35.8-.26,16-.26,35.8-.26S416.78,101.1,416.78,101.25Z"/><path class="cls-8" d="M311.74,242.73a6.22,6.22,0,1,1-6.22-6.22A6.22,6.22,0,0,1,311.74,242.73Z"/><path class="cls-8" d="M323.35,238.05H427.74a5.77,5.77,0,0,1,5.77,5.78v15.81a5.77,5.77,0,0,1-5.77,5.78h-93.5a5.78,5.78,0,0,1-5.78-5.78v-17Z"/><path class="cls-4" d="M416.78,247.86c0,.15-16,.26-35.8.26s-35.8-.11-35.8-.26,16-.26,35.8-.26S416.78,247.72,416.78,247.86Z"/><path class="cls-4" d="M416.78,254.31c0,.14-16,.26-35.8.26s-35.8-.12-35.8-.26,16-.26,35.8-.26S416.78,254.16,416.78,254.31Z"/><circle class="cls-6" cx="420.99" cy="137.49" r="6.11"/><path class="cls-6" d="M406.25,128.9H308.48a5.41,5.41,0,0,0-5.41,5.41v14.81a5.41,5.41,0,0,0,5.41,5.41h87.57a5.41,5.41,0,0,0,5.41-5.41v-15.9Z"/><path class="cls-4" d="M318.74,138.09c0-.14,15-.26,33.53-.26s33.53.12,33.53.26-15,.26-33.53.26S318.74,138.24,318.74,138.09Z"/><path class="cls-4" d="M318.74,144.13c0-.14,15-.26,33.53-.26s33.53.12,33.53.26-15,.26-33.53.26S318.74,144.27,318.74,144.13Z"/><path class="cls-5" d="M299.3,180.57a6.22,6.22,0,1,0,6.22-6.22A6.22,6.22,0,0,0,299.3,180.57Z"/><path class="cls-5" d="M327.23,171.56H425a5.41,5.41,0,0,1,5.41,5.41v14.82A5.41,5.41,0,0,1,425,197.2H337.43a5.41,5.41,0,0,1-5.41-5.41V175.88Z"/><path class="cls-4" d="M414.73,180.75c0,.15-15,.27-33.52.27s-33.53-.12-33.53-.27,15-.26,33.53-.26S414.73,180.61,414.73,180.75Z"/><path class="cls-4" d="M414.73,186.79c0,.14-15,.26-33.52.26s-33.53-.12-33.53-.26,15-.26,33.53-.26S414.73,186.65,414.73,186.79Z"/><rect class="cls-5" x="394.95" y="209.33" width="31.58" height="16.51" rx="3.99"/><path class="cls-4" d="M420.91,217.59a83.9,83.9,0,0,1-9.27.26,83.9,83.9,0,0,1-9.27-.26,79.56,79.56,0,0,1,9.27-.27A79.56,79.56,0,0,1,420.91,217.59Z"/><rect class="cls-3" x="292.01" y="319.1" width="15.46" height="15.46"/><rect class="cls-3" x="310.4" y="319.1" width="15.46" height="15.46"/><rect class="cls-3" x="328.8" y="319.1" width="15.46" height="15.46"/><rect class="cls-3" x="347.19" y="319.1" width="15.46" height="15.46"/><rect class="cls-3" x="365.58" y="319.1" width="15.46" height="15.46"/><rect class="cls-3" x="292.01" y="357.25" width="16.16" height="16.16"/><rect class="cls-3" x="311.24" y="357.29" width="77.97" height="16.16"/><path class="cls-5" d="M436.41,314.61s0-.4,0-1.17,0-1.92,0-3.42c0-3,0-7.44-.06-13.21l.11.12L292,297.07h0l.26-.26v17.8l-.26-.26,102.61.11,30.6.08,8.28,0,2.16,0,.75,0-.72,0h-2.12l-8.23,0-30.54.08L292,314.87h-.26V296.55H292l144.38.14h.12v.12c0,5.8,0,10.26-.06,13.28q0,2.24,0,3.39C436.42,314.24,436.41,314.61,436.41,314.61Z"/><rect class="cls-8" x="424.14" y="299.97" width="3.7" height="7.35" rx="1.48"/><path class="cls-8" d="M430.47,305.87a3.92,3.92,0,0,1-1.18.15l.15-.14a4.67,4.67,0,0,1-.75,2.29,3.15,3.15,0,0,1-1.18,1.07,3.46,3.46,0,0,1-1.72.32,3.53,3.53,0,0,1-2.73-1.49,5.43,5.43,0,0,1-.91-2.17l.15.13a4.46,4.46,0,0,1-1.36-.16,4.46,4.46,0,0,1,1.36-.16h.12l0,.13a5.87,5.87,0,0,0,1,2,3.16,3.16,0,0,0,2.38,1.25,2.9,2.9,0,0,0,1.48-.26,2.86,2.86,0,0,0,1-.88,5,5,0,0,0,.83-2l0-.15h.12A3.25,3.25,0,0,1,430.47,305.87Z"/><path class="cls-8" d="M426,309.32c.15,0,.26.51.26,1.13s-.11,1.14-.26,1.14-.26-.51-.26-1.14S425.85,309.32,426,309.32Z"/><rect class="cls-3" x="391.84" y="357.25" width="16.16" height="16.16"/><rect class="cls-8" x="411.06" y="357.25" width="25.34" height="16.16"/><rect class="cls-3" x="384.16" y="319.1" width="15.46" height="15.46"/><rect class="cls-3" x="402.55" y="319.1" width="15.46" height="15.46"/><rect class="cls-3" x="420.94" y="319.1" width="15.46" height="15.46"/><rect class="cls-3" x="292.01" y="338.17" width="15.46" height="15.46"/><rect class="cls-3" x="310.4" y="338.17" width="15.46" height="15.46"/><rect class="cls-3" x="328.8" y="338.17" width="15.46" height="15.46"/><rect class="cls-3" x="347.19" y="338.17" width="15.46" height="15.46"/><rect class="cls-3" x="365.58" y="338.17" width="15.46" height="15.46"/><rect class="cls-3" x="384.16" y="338.17" width="15.46" height="15.46"/><rect class="cls-3" x="402.55" y="338.17" width="15.46" height="15.46"/><rect class="cls-3" x="420.94" y="338.17" width="15.46" height="15.46"/><path class="cls-8" d="M361.27,283.44a2.67,2.67,0,1,1-2.66-2.66A2.66,2.66,0,0,1,361.27,283.44Z"/><path class="cls-8" d="M369.55,283.47a2.68,2.68,0,1,1-2.66-2.65A2.67,2.67,0,0,1,369.55,283.47Z"/><path class="cls-8" d="M377.82,283.51a2.67,2.67,0,0,1-5.34,0,2.67,2.67,0,0,1,5.34,0Z"/></g></g></svg>